<?xml version="1.0" encoding="UTF-8"?>
<svg width="60px" height="60px" viewBox="0 0 355 201" version="1.1" xmlns="http://www.w3.org/2000/svg" xmlns:xlink="http://www.w3.org/1999/xlink">
    <!-- Generator: Sketch 58 (84663) - https://sketch.com -->
    <title>Group 29</title>
    <desc>Created with Sketch.</desc>
    <g id="Page-1" stroke="none" stroke-width="1" fill="none" fill-rule="evenodd">
        <g id="Group-29">
            <rect id="Rectangle-Copy-9" x="0" y="0.164383562" width="355" height="200"></rect>
            <g id="Group-4-Copy-11" transform="translate(137.000000, 65.164384), scale(2)">
                <polygon id="Path-24" fill="#EEEEEE" points="15.0104803 16.2093401 12.1743956 19.7602787 15.0104803 26.4923286 21.6687398 27.128199 25.9348848 25.87676"></polygon>
                <polygon id="Path-24" fill="#EEEEEE" transform="translate(22.018697, 19.336373) rotate(-180.000000) translate(-22.018697, -19.336373) " points="17.9745369 13.8769435 15.1384522 17.427882 17.9745369 24.159932 24.6327964 24.7958023 28.8989414 23.5443633"></polygon>
                <path d="M40.4438138,39.2450931 L35.1089248,33.910204 L35.6056556,33.910204 C37.4758273,33.910204 38.9966979,32.3885387 38.9966979,30.5191618 L38.9966979,11.8685486 C38.9966979,9.99917164 37.4759068,8.4775063 35.6056556,8.4775063 L31.5722013,8.4775063 C31.1259383,8.4775063 30.6888152,8.29701418 30.3734507,7.98077547 L26.7771196,4.3844443 C26.1462317,3.75355641 25.2719854,3.39098265 24.379539,3.39098265 L16.3126304,3.39098265 C15.4201839,3.39098265 14.5459376,3.75363589 13.9150497,4.3844443 L10.3187186,7.98077547 C10.1159729,8.18399799 9.85687813,8.30559769 9.58355696,8.38475672 L1.44710604,0.248385282 C1.11592567,-0.0827950939 0.579456377,-0.0827950939 0.248355479,0.248385282 C-0.0827454199,0.579565657 -0.0828248969,1.11603495 0.248355479,1.44713585 L7.27872593,8.4775063 L5.08651371,8.4775063 C3.21634203,8.4775063 1.69547146,9.99917164 1.69547146,11.8685486 L1.69547146,30.5191618 C1.69547146,32.3885387 3.21626255,33.910204 5.08651371,33.910204 L32.7113442,33.910204 L39.2449838,40.4438436 C39.4105342,40.6093941 39.6275063,40.692209 39.8443988,40.692209 C40.0612914,40.692209 40.2781839,40.6093941 40.4438138,40.4438436 C40.7749942,40.1126633 40.7749942,39.576194 40.4438138,39.2450931 Z M5.08651371,32.2147226 C4.15186499,32.2147226 3.39103232,31.4546052 3.39103232,30.5191618 L3.39103232,11.8685486 C3.39103232,10.9331051 4.15186499,10.1730672 5.08651371,10.1730672 L8.9742868,10.1730672 L13.812445,15.0112254 C12.6164762,16.4729651 11.8685982,18.3146841 11.8685982,20.3461145 C11.8685982,25.0203913 15.6718873,28.8236804 20.3461641,28.8236804 C22.3775945,28.8236804 24.2193135,28.0758024 25.6810532,26.8798336 L31.0159423,32.2147226 L5.08651371,32.2147226 L5.08651371,32.2147226 Z M24.4827795,25.6816393 C23.3341789,26.5744832 21.9101112,27.128199 20.3460847,27.128199 C16.6065361,27.128199 13.5640796,24.0865373 13.5640796,20.3461939 C13.5640796,18.781929 14.1177159,17.3578613 15.0104803,16.2093401 L24.4827795,25.6816393 Z M16.2093898,15.0105896 C17.3579904,14.1177457 18.7820581,13.5640299 20.3460847,13.5640299 C24.0856333,13.5640299 27.1280897,16.6056916 27.1280897,20.346035 C27.1280897,21.9103 26.5744534,23.3343676 25.681689,24.4828888 L16.2093898,15.0105896 Z M26.8797243,25.6810035 C28.0756932,24.2192638 28.8235711,22.3775448 28.8235711,20.3461145 C28.8235711,15.6718377 25.020282,11.8685486 20.3460052,11.8685486 C18.3145748,11.8685486 16.4728559,12.6164265 15.0111161,13.8123954 L10.8700501,9.67132929 C11.1025996,9.53113198 11.3241812,9.37289341 11.5174691,9.17952604 L15.1138003,5.58319486 C15.4292443,5.26695615 15.8663674,5.08646404 16.3125509,5.08646404 L24.3794595,5.08646404 C24.8257224,5.08646404 25.2628456,5.26695615 25.57821,5.58319486 L29.1745412,9.17952604 C29.8054291,9.81041392 30.6796754,10.1729877 31.5721218,10.1729877 L35.6056556,10.1729877 C36.5403043,10.1729877 37.301137,10.9330256 37.301137,11.8684691 L37.301137,30.5191618 C37.301137,31.4546847 36.5403043,32.2146431 35.6056556,32.2146431 L33.4134434,32.2146431 L26.8797243,25.6810035 Z" id="Shape" stroke="#B2B2B2" stroke-width="1.20000005" fill="#B2B2B2" fill-rule="nonzero"></path>
            </g>
        </g>
    </g>
</svg>
