<?xml version="1.0" standalone="no"?>
<!DOCTYPE svg PUBLIC "-//W3C//DTD SVG 20010904//EN"
 "http://www.w3.org/TR/2001/REC-SVG-20010904/DTD/svg10.dtd">
<svg version="1.0" xmlns="http://www.w3.org/2000/svg"
 width="318.000000pt" height="318.000000pt" viewBox="0 0 318.000000 318.000000"
 preserveAspectRatio="xMidYMid meet">
<metadata>
Created by potrace 1.11, written by Peter Selinger 2001-2013
</metadata>
<g transform="translate(0.000000,318.000000) scale(0.100000,-0.100000)"
fill="#000000" stroke="none">
<path d="M213 1913 c96 -142 215 -316 263 -388 l89 -130 42 0 c23 -1 40 2 38
5 -3 5 -162 240 -395 585 l-125 184 -43 1 -43 0 174 -257z"/>
<path d="M1006 2073 c116 -168 420 -603 456 -653 13 -18 28 -24 62 -25 33 -2
44 1 38 10 -4 6 -126 181 -271 388 l-263 377 -45 0 -44 0 67 -97z"/>
<path d="M1392 2058 c-121 -172 -114 -158 -89 -190 l22 -27 95 136 c52 75 103
149 113 165 l19 28 -40 0 c-40 0 -41 -1 -120 -112z"/>
<path d="M1860 2164 c0 -3 33 -54 73 -112 41 -59 131 -192 202 -297 265 -393
241 -361 280 -360 19 0 36 4 36 8 1 9 -52 90 -234 357 -51 74 -134 197 -185
273 -94 137 -94 137 -133 137 -21 0 -39 -3 -39 -6z"/>
<path d="M574 1877 l1 -282 35 -50 35 -50 3 282 c2 283 2 283 -21 321 -54 85
-54 87 -53 -221z"/>
<path d="M2390 2143 c-1 -10 -1 -137 -1 -282 l0 -263 33 -49 c18 -27 35 -49
38 -49 3 0 5 127 5 283 l0 282 -33 48 c-36 52 -42 56 -42 30z"/>
<path d="M40 1791 l0 -284 31 -49 c17 -26 34 -48 38 -48 3 0 6 125 5 278 l0
277 -37 55 -37 55 0 -284z"/>
<path d="M1857 2053 c-2 -4 -4 -129 -3 -278 l1 -270 33 -47 c18 -27 35 -48 37
-48 3 0 5 125 5 278 l0 277 -34 48 c-19 26 -36 44 -39 40z"/>
<path d="M1050 1579 c-61 -89 -114 -167 -116 -173 -3 -8 8 -12 34 -12 42 0 36
-7 190 218 l54 77 -19 25 c-10 14 -21 26 -25 26 -3 0 -57 -73 -118 -161z"/>
<path d="M1350 1244 c0 -90 11 -96 19 -10 1 4 12 6 25 4 14 -3 31 -1 38 3 8 6
-1 9 -24 9 -21 0 -38 3 -39 8 0 4 -2 15 -4 25 -3 18 3 20 48 17 15 -1 27 2 27
7 0 4 -20 9 -45 11 l-45 3 0 -77z"/>
<path d="M1494 1310 c-27 -10 -35 -22 -41 -60 -5 -37 11 -68 43 -80 44 -17 86
16 89 70 1 20 -23 70 -34 70 -5 0 -15 2 -23 4 -7 3 -23 1 -34 -4z m60 -26 c34
-34 8 -104 -39 -104 -29 0 -45 19 -45 53 0 61 47 89 84 51z"/>
<path d="M1614 1312 c-11 -8 -12 -127 -1 -138 4 -4 7 7 7 24 0 30 2 32 35 32
31 0 36 -3 42 -30 3 -16 9 -30 14 -30 11 0 11 -2 -1 39 -6 21 -6 40 0 51 14
26 -12 54 -52 56 -19 2 -38 0 -44 -4z m83 -28 c8 -21 -9 -36 -46 -39 -26 -2
-31 1 -31 20 0 29 8 35 42 35 17 0 31 -6 35 -16z"/>
<path d="M1906 1313 c-3 -4 -6 -37 -6 -75 l0 -68 51 0 c27 0 48 4 45 9 -4 5
-18 8 -32 6 -14 -1 -31 4 -39 12 -20 19 -7 46 19 40 11 -3 30 -1 41 3 15 6 8
9 -26 9 -39 1 -45 4 -44 21 2 28 9 32 49 32 20 0 36 3 36 7 0 8 -85 12 -94 4z"/>
<path d="M2019 1295 c-2 -86 -1 -116 5 -122 3 -3 7 0 7 8 1 8 2 21 3 29 1 10
12 15 36 15 31 0 35 -3 38 -27 2 -16 8 -28 13 -28 12 0 11 27 -2 51 -7 15 -7
24 1 34 27 33 -8 65 -72 65 -23 0 -28 -5 -29 -25z m88 -12 c8 -21 -16 -42 -45
-39 -21 3 -27 9 -29 29 -1 17 4 27 15 29 25 6 53 -3 59 -19z"/>
<path d="M1739 1298 c-3 -41 0 -120 5 -125 3 -4 6 18 7 48 l1 54 23 -48 c12
-26 26 -48 30 -48 5 0 19 24 32 53 l23 53 -3 -53 c-2 -29 0 -55 5 -58 4 -3 8
1 9 8 1 18 1 89 0 111 -2 33 -23 12 -44 -43 l-21 -55 -24 58 c-24 54 -41 72
-43 45z"/>
<path d="M2150 1240 l0 -70 46 0 c25 0 43 4 40 9 -3 5 -19 7 -35 6 -35 -3 -38
3 -36 73 1 28 -2 52 -7 52 -4 0 -8 -31 -8 -70z"/>
<path d="M2230 1302 c0 -8 10 -27 21 -44 12 -17 22 -43 21 -59 0 -16 4 -29 9
-29 5 0 9 15 9 33 0 20 10 47 25 67 14 18 22 36 19 39 -3 3 -9 -1 -14 -9 -5
-8 -16 -24 -24 -35 -14 -17 -17 -18 -25 -5 -23 37 -40 54 -41 42z"/>
<path d="M2419 1129 c-41 -33 -79 -63 -86 -66 -7 -2 -28 7 -47 22 -44 33 -56
16 -13 -19 l32 -27 -29 -25 c-25 -22 -35 -25 -104 -22 -61 2 -77 6 -80 19 -2
13 7 15 55 15 59 -1 84 18 28 20 -16 1 -42 2 -57 3 -41 2 -37 31 3 31 35 0 36
22 1 25 -40 3 -62 -22 -62 -71 0 -37 -3 -44 -20 -44 -17 0 -20 7 -20 43 0 65
-9 72 -90 71 -82 0 -90 -7 -90 -71 l0 -43 -134 0 c-79 0 -137 -4 -141 -10 -4
-7 48 -10 149 -10 l155 0 3 53 3 52 55 0 55 0 3 -52 3 -53 97 -1 c155 -2 174
1 206 26 l30 24 33 -25 c45 -34 64 -20 21 16 -18 15 -31 30 -28 32 3 2 31 26
63 52 l57 48 0 -86 0 -86 59 0 c64 0 91 15 91 51 0 12 7 19 20 19 14 0 20 -7
20 -24 0 -41 20 -47 136 -44 l109 3 1 37 c0 21 3 40 6 43 3 3 31 -15 64 -40
32 -25 63 -44 68 -42 10 3 17 169 8 195 -12 33 -22 4 -24 -73 l-3 -85 -65 49
c-36 27 -68 46 -73 42 -4 -4 -8 -30 -8 -57 l-2 -50 -86 2 c-107 2 -101 0 -101
24 0 18 7 20 75 20 57 0 75 3 75 14 0 10 -17 13 -75 12 -64 -1 -75 1 -75 15 0
19 20 29 56 29 13 0 24 5 24 10 0 11 -52 13 -87 4 -15 -4 -23 -14 -23 -29 0
-27 -11 -32 -67 -29 -26 1 -46 -3 -54 -12 -9 -12 -6 -14 19 -14 23 0 30 -4 28
-17 -2 -9 -14 -20 -27 -23 -21 -5 -31 -6 -56 -1 -5 0 -6 38 -3 83 5 82 5 83
33 86 39 5 34 22 -7 22 -26 0 -49 -13 -107 -61z"/>
<path d="M2474 936 c-8 -22 -1 -51 14 -52 6 -1 23 -2 37 -3 20 -1 25 -6 25
-27 0 -14 4 -23 10 -19 6 3 10 19 10 36 0 30 -7 33 -57 29 -15 -1 -23 4 -23
14 0 12 10 16 40 16 22 0 40 5 40 10 0 16 -90 12 -96 -4z"/>
<path d="M2597 943 c-11 -10 -8 -51 3 -58 6 -4 10 5 10 19 0 24 4 26 40 26 22
0 40 5 40 10 0 11 -83 14 -93 3z"/>
<path d="M2717 937 c-14 -37 -1 -52 44 -52 42 0 44 1 44 30 0 28 -3 30 -41 33
-29 2 -43 -1 -47 -11z m73 -22 c0 -11 -9 -15 -30 -13 -17 1 -30 8 -30 15 0 8
12 13 30 13 20 0 30 -5 30 -15z"/>
<path d="M2839 943 c-8 -45 -5 -52 20 -57 29 -6 50 -4 67 6 14 9 11 51 -5 56
-8 3 -11 -4 -9 -19 3 -21 -1 -24 -27 -24 -25 0 -30 4 -29 23 1 20 -14 33 -17
15z"/>
<path d="M2955 941 c6 -5 26 -11 45 -13 42 -4 42 -23 0 -24 -17 -1 -34 -4 -38
-8 -13 -14 -9 -56 6 -56 9 0 13 7 9 20 -4 16 0 20 19 21 13 1 29 3 34 4 6 1
14 3 18 4 5 0 8 13 7 29 -1 26 -4 27 -55 30 -36 2 -52 0 -45 -7z"/>
</g>
</svg>
