<svg xmlns="http://www.w3.org/2000/svg" width="168.098" height="74.985" viewBox="0 0 168.098 74.985">
  <g id="ZT_1" data-name="ZT 1" transform="translate(-126.985 -22.998)">
    <path id="Vector" d="M79.083,41.479V15.937a5.664,5.664,0,0,0-1.539-4.33,6.215,6.215,0,0,0-4.508-1.633,3.929,3.929,0,0,0-.465.018V35.534a5.655,5.655,0,0,0,1.539,4.318A6.216,6.216,0,0,0,78.6,41.488h.477Zm.591-37.7a3.763,3.763,0,0,0-.652-2.1A3.831,3.831,0,0,0,77.3.287a3.874,3.874,0,0,0-4.179.825,3.77,3.77,0,0,0,.574,5.834,3.863,3.863,0,0,0,4.851-.468,3.769,3.769,0,0,0,1.122-2.691ZM60.2,29.1v6.437a5.655,5.655,0,0,0,1.539,4.318,6.249,6.249,0,0,0,4.5,1.636h.474V27.753c0-5.905-1.631-9.879-4.53-12.972A16.987,16.987,0,0,0,49.555,9.773c-9.924,0-16.8,7.182-16.8,16.536,0,9.189,6.367,15.322,14.626,15.322,6.367,0,10.192-3.743,10.192-8.131a9.016,9.016,0,0,0-1.656-5.06c-.923,4.716-3.557,7.3-7.807,7.3-4.539,0-8.533-3.4-8.533-9.6,0-6.1,4-10.266,10-10.266a10.031,10.031,0,0,1,7.237,2.81C58.965,20.78,60.2,24,60.2,29.094Zm50.745,3.947a.251.251,0,0,1-.114-.037.248.248,0,0,1-.083-.085c-4.662-6-13.232-17.062-15.078-19.461-1.963-2.527-3.5-3.345-5.539-3.345a4.775,4.775,0,0,0-3.536,1.39,6.181,6.181,0,0,0-1.4,4.257V35.552a5.661,5.661,0,0,0,1.523,4.318,6.053,6.053,0,0,0,4.391,1.636,3.593,3.593,0,0,0,.369,0V18.822c0-.164.074-.255.185-.255s.132.036.2.131c2.736,3.518,13.112,16.931,15.1,19.461s3.493,3.369,5.511,3.369a4.769,4.769,0,0,0,3.554-1.411,6.144,6.144,0,0,0,1.4-4.239V16.049a5.715,5.715,0,0,0-1.539-4.336,6.088,6.088,0,0,0-4.373-1.636h-.363v22.7c0,.161-.077.243-.185.243ZM8.721,35.388c-.255,0-.4-.085-.4-.255a.462.462,0,0,1,.077-.175.469.469,0,0,1,.141-.129c2-1.6,15.2-12.123,17.232-13.762,3.474-2.779,4.2-4.135,4.2-6.124a4.137,4.137,0,0,0-.387-1.731A4.183,4.183,0,0,0,28.507,11.8c-1.062-.888-2.643-1.371-5.207-1.371H.809v.356a5.891,5.891,0,0,0,.831,3.229C2.563,15.3,4.265,16.04,6.585,16.04h14.77c.262,0,.4.076.4.21s-.065.189-.231.3C19.441,18.226,7.25,27.948,4.21,30.347.7,33.132,0,34.522,0,36.492a4.11,4.11,0,0,0,.39,1.726,4.156,4.156,0,0,0,1.081,1.409c1.059.894,2.646,1.384,5.231,1.384H30.23v-.222a5.173,5.173,0,0,0-1.474-3.968c-1.148-1.049-2.634-1.429-5.419-1.429Z" transform="translate(177.655 22.998)" fill="#fff"/>
    <path id="Vector-2" data-name="Vector" d="M35.915,13.933c0-3.7-2.88-6.5-6.994-6.191-8.727.66-9.847,10.472-4.173,11.1,5.939.657,8.065-5.552,8.182-5.9.015.42.329,8.961-8.484,8.961a6.811,6.811,0,0,1-6.936-6.906c0-4.75,4.677-9.475,11.275-9.73,3.693-.143,6.133.721,8.041,2.606,3.886,3.84,2.769,11.047-.378,14.6a15.53,15.53,0,0,1-18.558,4.184C11.347,23.751,9,15.359,12.966,8.338A18.547,18.547,0,0,1,28.819,0C40.374,0,46.233,8.091,45.174,17.6c-.812,7.3-5.29,12.558-7.364,14.787-9.121,9.8-22.522,11.749-30.969,6.656a13.967,13.967,0,0,1-5.393-5.783A13.759,13.759,0,0,1,.094,25.512a13.867,13.867,0,0,0,6.04,10c6.9,4.652,18.444,5.291,26.79-3.774-8.385,6.188-18.183,6.082-24.873,1.788C1.9,29.571.223,21.684,3.23,13.878c-1.508,6.957.923,13.407,6.24,16.767,8.308,5.239,20.389,2.226,28-6.209a15.546,15.546,0,0,0,4.037-10.29c-.08-5.9-4.24-11.2-12.641-11.2-8.616,0-14.549,6.586-14.549,12.069,0,6.082,4.228,9.557,9.742,9.557,5.45,0,11.841-3.4,11.841-10.643" transform="translate(126.985 25.619)" fill="#fff"/>
    <path id="Vector-3" data-name="Vector" d="M8.081,5.99H0A5.61,5.61,0,0,1,1.673,2,5.746,5.746,0,0,1,5.714.344h17.6A5.616,5.616,0,0,1,21.65,4.33a5.752,5.752,0,0,1-4.03,1.66H15.241V27.06A7.177,7.177,0,0,1,10.175,25a7.006,7.006,0,0,1-2.095-5ZM26.236.344H45.45A5.324,5.324,0,0,1,45.035,2.4a5.375,5.375,0,0,1-1.181,1.745,5.448,5.448,0,0,1-1.767,1.166A5.5,5.5,0,0,1,40,5.723H33.1V10.8h6.173A5.443,5.443,0,0,1,43.1,12.367a5.314,5.314,0,0,1,1.584,3.78H33.1v5.534H40a5.477,5.477,0,0,1,3.851,1.574,5.347,5.347,0,0,1,1.6,3.8H26.236ZM54.94,25.7a11.686,11.686,0,0,1-4.794-4.814,15.043,15.043,0,0,1-1.668-7.2A14.843,14.843,0,0,1,50.145,6.5a11.714,11.714,0,0,1,4.794-4.8A15.115,15.115,0,0,1,62.285,0a16.562,16.562,0,0,1,5.12.8,11.845,11.845,0,0,1,4.046,2.129l-.086.2a5.13,5.13,0,0,1-2.55,2.531,5.217,5.217,0,0,1-3.6.257,10.617,10.617,0,0,0-2.769-.371A6.255,6.255,0,0,0,57.4,7.587q-1.742,2.046-1.745,6.1T57.4,19.811a6.234,6.234,0,0,0,5.043,2.065,10.617,10.617,0,0,0,2.769-.371,5.217,5.217,0,0,1,3.6.257,5.13,5.13,0,0,1,2.55,2.531l.086.2a11.845,11.845,0,0,1-4.046,2.129,16.653,16.653,0,0,1-5.12.8A15.1,15.1,0,0,1,54.94,25.71ZM100.026,7.176v19.9a6.947,6.947,0,0,1-4.882-2,6.783,6.783,0,0,1-2.024-4.823v-4H82.074v10.8a6.944,6.944,0,0,1-4.886-1.994,6.78,6.78,0,0,1-2.025-4.826V.332a6.947,6.947,0,0,1,4.882,2,6.783,6.783,0,0,1,2.024,4.823v3.564H93.112V.332a6.947,6.947,0,0,1,4.882,2,6.783,6.783,0,0,1,2.024,4.823" transform="translate(194.623 70.567)" fill="#fff"/>
  </g>
</svg>
