{
    "asset" : {
        "generator" : "Khronos glTF Blender I/O v3.2.43",
        "version" : "2.0"
    },
    "scene" : 0,
    "scenes" : [
        {
            "name" : "Scene",
            "nodes" : [
                0
            ]
        }
    ],
    "nodes" : [
        {
            "mesh" : 0,
            "name" : "alarm",
            "scale" : [
                0.7412692308425903,
                0.6785265803337097,
                0.7412692308425903
            ]
        }
    ],
    "materials" : [
        {
            "doubleSided" : true,
            "name" : "Material.001",
            "pbrMetallicRoughness" : {
                "baseColorFactor" : [
                    0.8000000715255737,
                    0,
                    0.0008478878880850971,
                    1
                ],
                "metallicFactor" : 0,
                "roughnessFactor" : 0.5
            }
        },
        {
            "doubleSided" : true,
            "name" : "Material.003",
            "pbrMetallicRoughness" : {
                "baseColorFactor" : [
                    0.800000011920929,
                    0.800000011920929,
                    0.800000011920929,
                    1
                ],
                "metallicFactor" : 0,
                "roughnessFactor" : 0.5
            }
        },
        {
            "doubleSided" : true,
            "name" : "Material.002",
            "pbrMetallicRoughness" : {
                "baseColorFactor" : [
                    0.8000000715255737,
                    0,
                    0.0012403889559209347,
                    1
                ],
                "metallicFactor" : 0,
                "roughnessFactor" : 0.5
            }
        },
        {
            "doubleSided" : true,
            "name" : "Material.004",
            "pbrMetallicRoughness" : {
                "baseColorFactor" : [
                    0.8000000715255737,
                    0,
                    0.0012403889559209347,
                    1
                ],
                "metallicFactor" : 0,
                "roughnessFactor" : 0.5
            }
        }
    ],
    "meshes" : [
        {
            "name" : "Cube.007",
            "primitives" : [
                {
                    "attributes" : {
                        "POSITION" : 0,
                        "NORMAL" : 1,
                        "TEXCOORD_0" : 2
                    },
                    "indices" : 3,
                    "material" : 0
                },
                {
                    "attributes" : {
                        "POSITION" : 4,
                        "NORMAL" : 5,
                        "TEXCOORD_0" : 6
                    },
                    "indices" : 7,
                    "material" : 1
                },
                {
                    "attributes" : {
                        "POSITION" : 8,
                        "NORMAL" : 9,
                        "TEXCOORD_0" : 10
                    },
                    "indices" : 11,
                    "material" : 2
                },
                {
                    "attributes" : {
                        "POSITION" : 12,
                        "NORMAL" : 13,
                        "TEXCOORD_0" : 14
                    },
                    "indices" : 15,
                    "material" : 3
                }
            ]
        }
    ],
    "accessors" : [
        {
            "bufferView" : 0,
            "componentType" : 5126,
            "count" : 258,
            "max" : [
                1.5027174949645996,
                2.9909892082214355,
                0.3329707384109497
            ],
            "min" : [
                -1.44484543800354,
                0.04342615604400635,
                -0.3010760545730591
            ],
            "type" : "VEC3"
        },
        {
            "bufferView" : 1,
            "componentType" : 5126,
            "count" : 258,
            "type" : "VEC3"
        },
        {
            "bufferView" : 2,
            "componentType" : 5126,
            "count" : 258,
            "type" : "VEC2"
        },
        {
            "bufferView" : 3,
            "componentType" : 5123,
            "count" : 414,
            "type" : "SCALAR"
        },
        {
            "bufferView" : 4,
            "componentType" : 5126,
            "count" : 20,
            "max" : [
                1.2171568870544434,
                2.637725353240967,
                0.004830490797758102
            ],
            "min" : [
                -1.159292459487915,
                0.3289371728897095,
                0.0037013404071331024
            ],
            "type" : "VEC3"
        },
        {
            "bufferView" : 5,
            "componentType" : 5126,
            "count" : 20,
            "type" : "VEC3"
        },
        {
            "bufferView" : 6,
            "componentType" : 5126,
            "count" : 20,
            "type" : "VEC2"
        },
        {
            "bufferView" : 7,
            "componentType" : 5123,
            "count" : 54,
            "type" : "SCALAR"
        },
        {
            "bufferView" : 8,
            "componentType" : 5126,
            "count" : 1121,
            "max" : [
                0.2081007957458496,
                2.4933600425720215,
                0.06739868223667145
            ],
            "min" : [
                -0.1277601718902588,
                0.5341240167617798,
                -0.19870267808437347
            ],
            "type" : "VEC3"
        },
        {
            "bufferView" : 9,
            "componentType" : 5126,
            "count" : 1121,
            "type" : "VEC3"
        },
        {
            "bufferView" : 10,
            "componentType" : 5126,
            "count" : 1121,
            "type" : "VEC2"
        },
        {
            "bufferView" : 11,
            "componentType" : 5123,
            "count" : 1440,
            "type" : "SCALAR"
        },
        {
            "bufferView" : 12,
            "componentType" : 5126,
            "count" : 2496,
            "max" : [
                -1.7962346076965332,
                1.694018840789795,
                0.10864052176475525
            ],
            "min" : [
                -9.18806266784668,
                1.3708879947662354,
                -0.21448999643325806
            ],
            "type" : "VEC3"
        },
        {
            "bufferView" : 13,
            "componentType" : 5126,
            "count" : 2496,
            "type" : "VEC3"
        },
        {
            "bufferView" : 14,
            "componentType" : 5126,
            "count" : 2496,
            "type" : "VEC2"
        },
        {
            "bufferView" : 15,
            "componentType" : 5123,
            "count" : 4836,
            "type" : "SCALAR"
        }
    ],
    "bufferViews" : [
        {
            "buffer" : 0,
            "byteLength" : 3096,
            "byteOffset" : 0
        },
        {
            "buffer" : 0,
            "byteLength" : 3096,
            "byteOffset" : 3096
        },
        {
            "buffer" : 0,
            "byteLength" : 2064,
            "byteOffset" : 6192
        },
        {
            "buffer" : 0,
            "byteLength" : 828,
            "byteOffset" : 8256
        },
        {
            "buffer" : 0,
            "byteLength" : 240,
            "byteOffset" : 9084
        },
        {
            "buffer" : 0,
            "byteLength" : 240,
            "byteOffset" : 9324
        },
        {
            "buffer" : 0,
            "byteLength" : 160,
            "byteOffset" : 9564
        },
        {
            "buffer" : 0,
            "byteLength" : 108,
            "byteOffset" : 9724
        },
        {
            "buffer" : 0,
            "byteLength" : 13452,
            "byteOffset" : 9832
        },
        {
            "buffer" : 0,
            "byteLength" : 13452,
            "byteOffset" : 23284
        },
        {
            "buffer" : 0,
            "byteLength" : 8968,
            "byteOffset" : 36736
        },
        {
            "buffer" : 0,
            "byteLength" : 2880,
            "byteOffset" : 45704
        },
        {
            "buffer" : 0,
            "byteLength" : 29952,
            "byteOffset" : 48584
        },
        {
            "buffer" : 0,
            "byteLength" : 29952,
            "byteOffset" : 78536
        },
        {
            "buffer" : 0,
            "byteLength" : 19968,
            "byteOffset" : 108488
        },
        {
            "buffer" : 0,
            "byteLength" : 9672,
            "byteOffset" : 128456
        }
    ],
    "buffers" : [
        {
            "byteLength" : 138128,
            "uri" : "data:application/octet-stream;base64,"
        }
    ]
}
