<svg id="asset-btn-hov" xmlns="http://www.w3.org/2000/svg" xmlns:xlink="http://www.w3.org/1999/xlink" width="178" height="31" viewBox="0 0 178 31">
  <defs>
    <clipPath id="clip-path">
      <rect id="Rectangle_875" data-name="Rectangle 875" width="17" height="14.941" fill="#fff"/>
    </clipPath>
  </defs>
  <rect id="Rectangle_873" data-name="Rectangle 873" width="178" height="31" fill="#833c88" opacity="0.4"/>
  <rect id="Rectangle_877" data-name="Rectangle 877" width="29" height="31" transform="translate(149)" fill="#ce78d5" opacity="0.4"/>
  <text id="ASSETS_ANALYSIS" data-name="ASSETS ANALYSIS" transform="translate(75 21)" fill="#fff" font-size="16" font-family="TitilliumWeb-Regular, Titillium Web"><tspan x="-60.976" y="0">ASSETS ANALYSIS</tspan></text>
  <g id="Group_3829" data-name="Group 3829" transform="translate(157 7.7)">
    <g id="Group_3828" data-name="Group 3828" transform="translate(-2)" clip-path="url(#clip-path)">
      <path id="Path_3687" data-name="Path 3687" d="M.5,14.941h16a.5.5,0,0,0,.5-.5V.5a.5.5,0,0,0-.5-.5H.5A.5.5,0,0,0,0,.5V14.444a.5.5,0,0,0,.5.5M1,1H16V3.984H1ZM1,4.981H16v8.964H1Z" fill="#fff" fill-rule="evenodd"/>
      <path id="Path_3688" data-name="Path 3688" d="M88.595,17.917a.5.5,0,1,1-.5-.5.5.5,0,0,1,.5.5" transform="translate(-77.58 -15.427)" fill="#fff" fill-rule="evenodd"/>
      <path id="Path_3689" data-name="Path 3689" d="M106.018,17.917a.5.5,0,1,1-.5-.5.5.5,0,0,1,.5.5" transform="translate(-93.011 -15.427)" fill="#fff" fill-rule="evenodd"/>
      <path id="Path_3690" data-name="Path 3690" d="M123.435,17.917a.5.5,0,1,1-.5-.5.5.5,0,0,1,.5.5" transform="translate(-108.436 -15.427)" fill="#fff" fill-rule="evenodd"/>
      <path id="Path_3691" data-name="Path 3691" d="M30.157,52.259H18.2a.5.5,0,0,0-.5.5v5.977a.5.5,0,0,0,.5.5H30.157a.5.5,0,0,0,.5-.5V52.757a.5.5,0,0,0-.5-.5m-9.463,5.977H18.7V53.255h1.993Zm2.988,0H21.69V55.247h1.992Zm2.989,0H24.678V55.247h1.993Zm2.988,0H27.667V55.247h1.992Zm0-3.985H21.69v-1h7.969Z" transform="translate(-15.68 -46.282)" fill="#fff" fill-rule="evenodd"/>
      <path id="Path_3692" data-name="Path 3692" d="M23.184,17.419H18.2a.5.5,0,1,0,0,1h4.981a.5.5,0,0,0,0-1" transform="translate(-15.68 -15.427)" fill="#fff" fill-rule="evenodd"/>
    </g>
  </g>
</svg>
