<svg xmlns="http://www.w3.org/2000/svg" width="44" height="44" viewBox="0 0 44 44">
  <g id="Group_3514" data-name="Group 3514" transform="translate(-12324 -7633)">
    <rect id="Rectangle_165" data-name="Rectangle 165" width="10.314" height="2.427" transform="translate(12330.143 7669.27)" fill="#fff" opacity="0.4"/>
    <circle id="Ellipse_48" data-name="Ellipse 48" cx="22" cy="22" r="22" transform="translate(12324 7633)" fill="#499546"/>
    <path id="Path_3581" data-name="Path 3581" d="M318.968,109.173a1.784,1.784,0,0,1-1.781-1.782V99.82a1.782,1.782,0,0,1,3.563,0v7.57A1.784,1.784,0,0,1,318.968,109.173Zm0-10.288a.937.937,0,0,0-.936.936v7.57a.936.936,0,0,0,1.872,0V99.82A.937.937,0,0,0,318.968,98.884Z" transform="translate(12015.895 7558.421)" fill="#fff"/>
    <path id="Path_3582" data-name="Path 3582" d="M344.477,95.19a2.251,2.251,0,1,0,0-4.495,1.408,1.408,0,1,1,1.534-1.4.423.423,0,1,0,.845,0,2.383,2.383,0,1,0-2.379,2.248,1.407,1.407,0,1,1-1.533,1.4.423.423,0,0,0-.846,0A2.318,2.318,0,0,0,344.477,95.19Z" transform="translate(12006.264 7562.672)" fill="#fff"/>
    <path id="Path_3583" data-name="Path 3583" d="M345.71,95.462a.423.423,0,0,0,.423-.423V86.265a.423.423,0,1,0-.846,0V95.04A.423.423,0,0,0,345.71,95.462Z" transform="translate(12005.031 7563.137)" fill="#fff"/>
    <path id="Path_3584" data-name="Path 3584" d="M337.435,92.944a.424.424,0,0,1-.4-.272,5.716,5.716,0,0,1,2.192-6.8.423.423,0,1,1,.467.705,4.868,4.868,0,0,0-1.869,5.795.424.424,0,0,1-.395.574Z" transform="translate(12008.364 7563.153)" fill="#fff"/>
    <path id="Path_3585" data-name="Path 3585" d="M350.456,95.473a.423.423,0,0,1-.234-.776,4.863,4.863,0,0,0,0-8.122.423.423,0,1,1,.467-.705,5.71,5.71,0,0,1,0,9.533A.424.424,0,0,1,350.456,95.473Z" transform="translate(12003.196 7563.153)" fill="#fff"/>
    <path id="Path_3586" data-name="Path 3586" d="M334.335,107.135h-12.3a.423.423,0,0,1-.423-.423v-6.426a.423.423,0,0,1,.235-.378l1.6-.794a10.886,10.886,0,0,1,6.584-1.008l4.345.688A1.828,1.828,0,0,1,335.9,100.7v.162a2.413,2.413,0,0,1-.03.331c.008.019.012.078.017.1l.082.317c.2.018.4.028.59.028a6.538,6.538,0,0,0,5.78-3.475.429.429,0,0,0,.291-.616.422.422,0,0,1,.574-.166c.045.025.1.052.161.08.415.2,1.187.575,1.184,1.429a3.512,3.512,0,0,1-.9,2.089,8.217,8.217,0,0,1-.872.861c-.088.079-.177.157-.264.237a8.8,8.8,0,0,1-.835.685l-5.106,3.655A3.82,3.82,0,0,1,334.335,107.135Zm-11.872-.846h11.872a2.981,2.981,0,0,0,1.745-.559l5.106-3.655a8.021,8.021,0,0,0,.757-.62c.09-.083.181-.164.272-.245a7.5,7.5,0,0,0,.788-.772,2.632,2.632,0,0,0,.7-1.548c0-.263-.25-.434-.576-.6a.419.419,0,0,1-.043.274,7.382,7.382,0,0,1-6.527,3.923,7.544,7.544,0,0,1-.983-.067.423.423,0,0,1-.354-.315l-.147-.575a.879.879,0,0,1-.033-.5s.01-.074.014-.181v-.136c-.025-.934-.626-1.05-.823-1.089L329.9,98.94a10.051,10.051,0,0,0-6.075.931l-1.362.677Z" transform="translate(12014.183 7558.696)" fill="#fff"/>
    <path id="Path_3587" data-name="Path 3587" d="M341.318,96.417c-.16,0-.318-.006-.475-.017l-.039,0c-.171-.013-.321-.028-.47-.047a.423.423,0,0,1-.359-.336l-.109-.543a2.918,2.918,0,0,1-.052-.685v-.14c-.025-.934-.626-1.05-.823-1.089l-3.752-.594a.422.422,0,0,1-.3-.2,7.39,7.39,0,1,1,13.21-.916l-.3.631c-.086.163-.168.3-.254.443s-.172.266-.259.389l-.032.044a7.39,7.39,0,0,1-.594.721l-.028.029c-.111.117-.212.217-.315.314l-.32-.279.288.31c-.116.107-.234.21-.357.31s-.242.19-.359.274l-.073.052c-.119.083-.242.165-.367.243s-.274.161-.409.233l-.051.026-.031.015c-.11.057-.223.112-.337.163l-.091.041c-.139.06-.28.118-.424.17l-.032.011q-.2.07-.4.129l-.139.039c-.1.028-.2.052-.3.075l-.129.03c-.146.031-.3.057-.448.079l-.109.013q-.18.024-.364.039l-.133.01C341.632,96.41,341.476,96.417,341.318,96.417Zm-.574-.873.1.009.024.426.028-.421a6.663,6.663,0,0,0,.836,0l.089-.007c.136-.011.243-.023.349-.036l.1-.012c.134-.02.267-.043.4-.071l.107-.025c.091-.021.182-.043.272-.067l.123-.035c.12-.035.237-.072.352-.114.156-.056.281-.107.4-.16l.055-.025c.128-.058.228-.106.326-.156l.072-.037c.12-.063.239-.13.354-.2s.228-.146.334-.221l.063-.045c.1-.074.206-.151.3-.231.122-.1.227-.191.329-.286l.318.281-.29-.308c.091-.086.181-.175.267-.266l.345.251L346.1,93.5a6.638,6.638,0,0,0,.528-.64l.026-.037c.078-.11.152-.22.223-.334.084-.135.156-.261.225-.389l.274-.583a6.546,6.546,0,1,0-11.8.648l3.564.565a1.828,1.828,0,0,1,1.522,1.909V94.8a.491.491,0,0,1,0,.051,2.108,2.108,0,0,0,.039.456Z" transform="translate(12009.423 7564.764)" fill="#fff"/>
    <path id="Path_3588" data-name="Path 3588" d="M341.3,105.1h-4.589a.423.423,0,0,1,0-.846H341.3a.423.423,0,0,1,0,.846Z" transform="translate(12008.508 7556.02)" fill="#fff"/>
    <path id="Path_3589" data-name="Path 3589" d="M318.616,112.862H317.61a.423.423,0,0,1,0-.846h1.007a.423.423,0,0,1,0,.846Z" transform="translate(12015.895 7553.018)" fill="#fff"/>
    <path id="Path_3590" data-name="Path 3590" d="M318.616,109.134H317.61a.423.423,0,0,1,0-.845h1.007a.423.423,0,1,1,0,.845Z" transform="translate(12015.895 7554.458)" fill="#fff"/>
    <path id="Path_3591" data-name="Path 3591" d="M318.616,105.407H317.61a.423.423,0,0,1,0-.846h1.007a.423.423,0,0,1,0,.846Z" transform="translate(12015.895 7555.9)" fill="#fff"/>
    <path id="Path_3592" data-name="Path 3592" d="M318.616,101.68H317.61a.423.423,0,0,1,0-.846h1.007a.423.423,0,0,1,0,.846Z" transform="translate(12015.895 7557.341)" fill="#fff"/>
    <path id="Path_3593" data-name="Path 3593" d="M330.736,110.035H325a.423.423,0,1,1,0-.845h5.734a.423.423,0,0,1,0,.845Z" transform="translate(12013.037 7554.11)" fill="#fff"/>
    <path id="Path_3594" data-name="Path 3594" d="M345.71,75.756a.423.423,0,0,1-.423-.423V71.25a.423.423,0,0,1,.845,0v4.083A.423.423,0,0,1,345.71,75.756Z" transform="translate(12005.031 7568.942)" fill="#fff"/>
    <path id="Path_3595" data-name="Path 3595" d="M351.835,77.594a.423.423,0,0,1-.423-.423V73.088a.423.423,0,1,1,.845,0v4.083A.423.423,0,0,1,351.835,77.594Z" transform="translate(12002.663 7568.231)" fill="#fff"/>
    <path id="Path_3596" data-name="Path 3596" d="M339.585,77.594a.423.423,0,0,1-.423-.423V73.088a.423.423,0,1,1,.845,0v4.083A.423.423,0,0,1,339.585,77.594Z" transform="translate(12007.399 7568.231)" fill="#fff"/>
  </g>
</svg>
