<svg id="browser" xmlns="http://www.w3.org/2000/svg" width="73.224" height="73.224" viewBox="0 0 73.224 73.224">
  <path id="bar" d="M0,0H73.224V73.224H0Z" fill="#393939"/>
  <g id="Group_2801" data-name="Group 2801" transform="translate(19.369 20.503)">
    <g id="Group_2799" data-name="Group 2799">
      <path id="Path_3296" data-name="Path 3296" d="M175.5,1098.823H141.03a.483.483,0,0,1-.485-.485v-25.532a.485.485,0,0,1,.485-.487H175.5a.486.486,0,0,1,.487.487v25.532A.485.485,0,0,1,175.5,1098.823Zm-33.984-.97h33.5v-24.562h-33.5Z" transform="translate(-140.545 -1072.32)" fill="#fff" stroke="#fff" stroke-width="1"/>
      <path id="Path_3297" data-name="Path 3297" d="M148.5,1093.738a.486.486,0,0,1-.487-.487v-5.542a.486.486,0,0,1,.971,0v5.542A.486.486,0,0,1,148.5,1093.738Z" transform="translate(-135.22 -1061.691)" fill="#fff" stroke="#fff" stroke-width="1"/>
      <path id="Path_3298" data-name="Path 3298" d="M153.7,1093.738a.486.486,0,0,1-.486-.487v-5.542a.486.486,0,0,1,.971,0v5.542A.486.486,0,0,1,153.7,1093.738Z" transform="translate(-131.514 -1061.691)" fill="#fff" stroke="#fff" stroke-width="1"/>
      <path id="Path_3299" data-name="Path 3299" d="M174.983,1085.6H141.03a.486.486,0,0,1,0-.971h33.954a.486.486,0,1,1,0,.971Z" transform="translate(-140.545 -1063.544)" fill="#fff" stroke="#fff" stroke-width="1"/>
      <path id="Path_3300" data-name="Path 3300" d="M163.393,1091.691H146a.486.486,0,1,1,0-.971h17.4a.486.486,0,0,1,0,.971Z" transform="translate(-137.004 -1059.199)" fill="#fff" stroke="#fff" stroke-width="1"/>
    </g>
    <g id="Group_2800" data-name="Group 2800" transform="translate(10.051 2.967)">
      <path id="Path_3301" data-name="Path 3301" d="M154.085,1078.952h-3.846a.235.235,0,0,0-.235.235v7.954a.235.235,0,0,0,.235.235h3.846a.234.234,0,0,0,.233-.235v-7.954A.234.234,0,0,0,154.085,1078.952Zm-.235,7.954h-3.376v-7.486h3.376Z" transform="translate(-143.851 -1070.557)" fill="#fff" stroke="#fff" stroke-width="1"/>
      <path id="Path_3302" data-name="Path 3302" d="M157.793,1076.495h-3.844a.234.234,0,0,0-.235.235v12.163a.234.234,0,0,0,.235.234h3.844a.234.234,0,0,0,.235-.234v-12.163A.234.234,0,0,0,157.793,1076.495Zm-.235,12.163h-3.375v-11.7h3.375Z" transform="translate(-141.205 -1072.31)" fill="#fff" stroke="#fff" stroke-width="1"/>
      <path id="Path_3303" data-name="Path 3303" d="M150.491,1076.495h-3.846a.234.234,0,0,0-.233.235v12.163a.234.234,0,0,0,.233.234h3.846a.235.235,0,0,0,.235-.234v-12.163A.235.235,0,0,0,150.491,1076.495Zm-.235,12.163H146.88v-11.7h3.377Z" transform="translate(-146.412 -1072.31)" fill="#fff" stroke="#fff" stroke-width="1"/>
      <path id="Path_3304" data-name="Path 3304" d="M153.751,1080.5a.227.227,0,0,0,.161.065h.024a.235.235,0,0,0,.17-.1l3.885-5.583.272,1.521a.235.235,0,0,0,.231.192l.041,0a.236.236,0,0,0,.19-.272l-.372-2.074a.236.236,0,0,0-.272-.19l-2.066.37a.235.235,0,1,0,.082.462l1.508-.271-3.729,5.357-5.975-5.724a.234.234,0,0,0-.324.339Z" transform="translate(-145.632 -1074.052)" fill="#fff" stroke="#fff" stroke-width="1"/>
    </g>
  </g>
</svg>
