<svg xmlns="http://www.w3.org/2000/svg" width="30" height="30" viewBox="0 0 30 30">
  <g id="Group_3390" data-name="Group 3390" transform="translate(-1537 -1076)">
    <g id="Ellipse_48" data-name="Ellipse 48" transform="translate(1537 1076)" fill="none" stroke="#476cad" stroke-width="1">
      <circle cx="15" cy="15" r="15" stroke="none"/>
      <circle cx="15" cy="15" r="14.5" fill="none"/>
    </g>
    <g id="Group_3388" data-name="Group 3388" transform="translate(1513.963 876.623)">
      <path id="Path_3528" data-name="Path 3528" d="M45.743,212.44H44.76a.524.524,0,0,1-.352-.133L41.33,209.52a2.022,2.022,0,0,0-1.361-.52H34.117a1.98,1.98,0,0,0-1.777,1.063l-.8,2.14a.489.489,0,0,1-.424.237H28.98a.968.968,0,0,0-.98.953v3.322a.968.968,0,0,0,.98.953h.84a2.55,2.55,0,0,0,5.015,0H41.5a2.55,2.55,0,0,0,5.015,0h.555a.994.994,0,0,0,1.007-.979v-2A2.293,2.293,0,0,0,45.743,212.44Zm1.533,1.79h-.244a.9.9,0,0,1-.93-.875V213.2A1.582,1.582,0,0,1,47.276,214.23Zm-6.428-4.179,2.638,2.389H40.24v-.8a1,1,0,0,0-2,0v.8h-.419v-2.723h2.144A1.307,1.307,0,0,1,40.849,210.051Zm-1.326,2.389H38.96v-.8a.283.283,0,0,1,.562,0Zm-6.535-2.067a1.283,1.283,0,0,1,1.13-.656h2.99v2.723H34.929v-.8a1,1,0,0,0-2,0v.8H32.22Zm-.66,4.491c-.068,0-.136.005-.2.01v-1.718h4.983v3.795H34.835A2.512,2.512,0,0,0,32.328,214.864Zm1.885-2.425H33.65v-.8a.283.283,0,0,1,.563,0Zm-5.233.717h.594v.107a1.1,1.1,0,0,1-.857,1.046v-.917A.251.251,0,0,1,28.98,213.157Zm-.263,3.558v-1.677a1.822,1.822,0,0,0,1.574-1.775v-.107h1.117v1.877a2.469,2.469,0,0,0-1.588,1.918h-.84A.251.251,0,0,1,28.717,216.715Zm3.611,2.323a1.73,1.73,0,1,1,1.821-1.728A1.779,1.779,0,0,1,32.328,219.037Zm11.678,0a1.73,1.73,0,1,1,1.821-1.728A1.779,1.779,0,0,1,44.006,219.037Zm3.062-2.086h-.555a2.55,2.55,0,0,0-5.015,0H37.824v-3.795h7.56v.2a1.622,1.622,0,0,0,1.647,1.592h.326v1.742A.277.277,0,0,1,47.068,216.951Z" fill="#476cad"/>
      <path id="Path_3529" data-name="Path 3529" d="M37.747,228.668a1.259,1.259,0,1,0,1.3,1.259A1.281,1.281,0,0,0,37.747,228.668Zm0,1.8a.543.543,0,1,1,.582-.542A.564.564,0,0,1,37.747,230.469Z" transform="translate(-5.42 -12.617)" fill="#476cad"/>
      <path id="Path_3530" data-name="Path 3530" d="M70.324,228.668a1.259,1.259,0,1,0,1.3,1.259A1.281,1.281,0,0,0,70.324,228.668Zm0,1.8a.543.543,0,1,1,.582-.542A.564.564,0,0,1,70.324,230.469Z" transform="translate(-26.318 -12.617)" fill="#476cad"/>
      <path id="Path_3531" data-name="Path 3531" d="M57.49,222.078h-.915a.358.358,0,1,0,0,.717h.915a.358.358,0,1,0,0-.717Z" transform="translate(-18.102 -8.39)" fill="#476cad"/>
      <path id="Path_3532" data-name="Path 3532" d="M41.757,222.078h-.915a.358.358,0,1,0,0,.717h.915a.358.358,0,1,0,0-.717Z" transform="translate(-8.009 -8.39)" fill="#476cad"/>
    </g>
  </g>
</svg>
