<?xml version="1.0" encoding="utf-8"?>
<!-- Generator: Adobe Illustrator 26.0.0, SVG Export Plug-In . SVG Version: 6.00 Build 0)  -->
<svg version="1.1" id="Layer_1" xmlns="http://www.w3.org/2000/svg" xmlns:xlink="http://www.w3.org/1999/xlink" x="0px" y="0px"
	 viewBox="0 0 20.1 18.5" style="enable-background:new 0 0 20.1 18.5;" xml:space="preserve">
<style type="text/css">
	.st0{fill:#8AA3CF;}
</style>
<g id="Group_770" transform="translate(1094.457 1154.641)">
	<path id="Path_131" class="st0" d="M-1084.6-1147c0,0,0.1,0,0.1,0c0.1,0,0.1,0,0.2,0l6.2-3.8c0.1-0.1,0.2-0.3,0.1-0.4c0,0,0,0,0,0
		c-1.6-2-3.9-3.2-6.4-3.4c-0.1,0-0.2,0-0.2,0.1c-0.1,0.1-0.1,0.1-0.1,0.2v7.1C-1084.7-1147.1-1084.7-1147-1084.6-1147z
		 M-1084.1-1154c2.1,0.3,4.1,1.3,5.5,2.9l-5.5,3.4V-1154z"/>
	<path id="Path_132" class="st0" d="M-1085.6-1146.3v-8c0-0.2-0.1-0.3-0.3-0.3c0,0,0,0,0,0c-4.8,0.4-8.5,4.4-8.5,9.3
		c0,1.3,0.3,2.6,0.8,3.8c0,0.1,0.1,0.1,0.2,0.2c0,0,0.1,0,0.1,0c0.1,0,0.1,0,0.2,0l7.4-4.6
		C-1085.7-1146.1-1085.6-1146.2-1085.6-1146.3z M-1086.2-1146.5l-7,4.3c-0.4-1-0.6-2.1-0.6-3.2c0-4.4,3.3-8.1,7.6-8.6
		L-1086.2-1146.5z"/>
	<path id="Path_133" class="st0" d="M-1085.2-1145c-0.1-0.1-0.3-0.2-0.4-0.1c0,0,0,0,0,0l-7.2,4.5c-0.1,0-0.1,0.1-0.1,0.2
		c0,0.1,0,0.2,0,0.2c2.7,4,8,5.3,12.2,3c0.1-0.1,0.2-0.3,0.1-0.4c0,0,0,0,0,0L-1085.2-1145z M-1085.2-1136.7c-2.8,0-5.4-1.3-7-3.6
		l6.7-4.1l4.2,6.8C-1082.5-1137-1083.8-1136.7-1085.2-1136.7L-1085.2-1136.7z"/>
	<path id="Path_134" class="st0" d="M-1075.6-1149.6c0-0.1-0.1-0.1-0.2-0.1c-0.1,0-0.2,0-0.2,0l-6.8,4.2c-0.1,0-0.1,0.1-0.1,0.2
		c0,0.1,0,0.2,0,0.2l4.5,7.3c0,0.1,0.1,0.1,0.2,0.1c0,0,0,0,0.1,0c0.1,0,0.1,0,0.2-0.1C-1074.3-1140.6-1073.3-1145.6-1075.6-1149.6
		L-1075.6-1149.6z M-1075.4-1142.5l-3.8,2.3l-0.8-1.3l4.9-3C-1075-1143.9-1075.2-1143.2-1075.4-1142.5L-1075.4-1142.5z
		 M-1080.3-1142l-0.8-1.3l5.9-3.6c0.1,0.6,0.2,1.1,0.2,1.7L-1080.3-1142z M-1076-1149c0.2,0.5,0.4,0.9,0.6,1.4l-6,3.7l-0.8-1.3
		L-1076-1149z M-1078-1138.4l-0.8-1.3l3.1-1.9C-1076.2-1140.4-1077-1139.3-1078-1138.4z"/>
</g>
</svg>
