<svg xmlns="http://www.w3.org/2000/svg" width="35.836" height="30" viewBox="0 0 35.836 30">
  <g id="hot-cold-icon" transform="translate(-215.666 -28.401)">
    <path id="Path_17" data-name="Path 17" d="M275.174,40.053a.717.717,0,0,1-.115-.009l-2.774-.467a.689.689,0,0,1-.566-.566l-.467-2.773a.69.69,0,1,1,1.36-.229L273,38.3l2.29.385a.689.689,0,0,1-.114,1.369Z" transform="translate(-26.472 -3.35)" fill="#84e9ff"/>
    <path id="Path_18" data-name="Path 18" d="M271.212,54.828h-7.482a.69.69,0,0,1-.666-.868l.322-1.207-1.066-.494a.69.69,0,1,1,.58-1.251l1.591.738a.69.69,0,0,1,.376.8l-.24.9h6.584a.69.69,0,1,1,0,1.379Z" transform="translate(-22.031 -10.737)" fill="#84e9ff"/>
    <path id="Path_19" data-name="Path 19" d="M280.668,57.314a.688.688,0,0,1-.562-.29l-1.631-2.291a.691.691,0,0,1,0-.8l1.631-2.291a.69.69,0,0,1,1.124.8l-1.346,1.892,1.346,1.891a.69.69,0,0,1-.561,1.09Z" transform="translate(-29.855 -10.932)" fill="#84e9ff"/>
    <path id="Path_20" data-name="Path 20" d="M268.011,64.96a.688.688,0,0,1-.488-.2l-5.291-5.291a.689.689,0,0,1,.181-1.106l1.02-.506-.32-1.27a.69.69,0,1,1,1.337-.337l.456,1.81a.689.689,0,0,1-.362.787l-.658.326,4.612,4.612a.69.69,0,0,1-.488,1.177Z" transform="translate(-22.084 -13.016)" fill="#84e9ff"/>
    <path id="Path_21" data-name="Path 21" d="M271.933,74.452a.722.722,0,0,1-.115-.009.69.69,0,0,1-.566-.794l.467-2.774a.69.69,0,0,1,.566-.566l2.774-.467a.69.69,0,1,1,.229,1.36l-2.29.385-.385,2.29A.69.69,0,0,1,271.933,74.452Z" transform="translate(-26.472 -19.734)" fill="#84e9ff"/>
    <path id="Path_22" data-name="Path 22" d="M257.827,70.544a.69.69,0,0,1-.69-.69V62.372a.69.69,0,0,1,.87-.666l1.181.32.6-1.057a.69.69,0,1,1,1.2.683l-.867,1.521a.691.691,0,0,1-.779.324l-.826-.224v6.581A.69.69,0,0,1,257.827,70.544Z" transform="translate(-19.753 -15.347)" fill="#84e9ff"/>
    <path id="Path_23" data-name="Path 23" d="M253.452,79.946a.69.69,0,0,1-.4-1.252l2.292-1.631a.69.69,0,0,1,.8,0l2.291,1.631a.69.69,0,1,1-.8,1.124l-1.891-1.346-1.892,1.346A.685.685,0,0,1,253.452,79.946Z" transform="translate(-17.669 -23.118)" fill="#84e9ff"/>
    <path id="Path_24" data-name="Path 24" d="M260.331,44.5a.682.682,0,0,1-.152-.017.69.69,0,0,1-.5-.442l-.412-1.16-1.2.455a.69.69,0,0,1-.935-.645V35.208a.69.69,0,1,1,1.379,0V41.69l.922-.35a.69.69,0,0,1,.895.414l.282.8,4.577-4.577a.69.69,0,1,1,.975.976L260.819,44.3A.689.689,0,0,1,260.331,44.5Z" transform="translate(-19.753 -2.914)" fill="#84e9ff"/>
    <path id="Path_25" data-name="Path 25" d="M255.743,34.414a.693.693,0,0,1-.4-.128l-2.291-1.631a.69.69,0,0,1,.8-1.124l1.891,1.346,1.891-1.346a.69.69,0,1,1,.8,1.124l-2.291,1.631A.692.692,0,0,1,255.743,34.414Z" transform="translate(-17.669 -1.43)" fill="#84e9ff"/>
    <path id="Path_26" data-name="Path 26" d="M248.206,58.4a.69.69,0,0,1-.69-.69V29.091a.69.69,0,1,1,1.379,0V57.711A.69.69,0,0,1,248.206,58.4Z" transform="translate(-15.171)" fill="#84e9ff"/>
    <path id="Path_27" data-name="Path 27" d="M233.662,57.794a8.286,8.286,0,1,1,0-16.572.69.69,0,0,1,0,1.379,6.906,6.906,0,1,0,0,13.813.69.69,0,0,1,0,1.379Z" transform="translate(-4.625 -6.107)" fill="#84e9ff"/>
    <path id="Path_28" data-name="Path 28" d="M240.571,79.092a.689.689,0,0,1-.69-.69V75.542a.689.689,0,1,1,1.379,0V78.4A.689.689,0,0,1,240.571,79.092Z" transform="translate(-11.534 -22.125)" fill="#84e9ff"/>
    <path id="Path_29" data-name="Path 29" d="M240.571,79.092a.689.689,0,0,1-.69-.69V75.542a.689.689,0,1,1,1.379,0V78.4A.689.689,0,0,1,240.571,79.092Z" transform="translate(-11.534 -22.125)" fill="#84e9ff"/>
    <path id="Path_30" data-name="Path 30" d="M232.16,77.766a.691.691,0,0,1-.648-.926l.979-2.689a.69.69,0,0,1,1.3.472l-.978,2.689A.69.69,0,0,1,232.16,77.766Z" transform="translate(-7.528 -21.575)" fill="#84e9ff"/>
    <path id="Path_31" data-name="Path 31" d="M240.571,79.092a.689.689,0,0,1-.69-.69V75.542a.689.689,0,1,1,1.379,0V78.4A.689.689,0,0,1,240.571,79.092Z" transform="translate(-11.534 -22.125)" fill="#84e9ff"/>
    <path id="Path_32" data-name="Path 32" d="M240.571,79.092a.689.689,0,0,1-.69-.69V75.542a.689.689,0,1,1,1.379,0V78.4A.689.689,0,0,1,240.571,79.092Z" transform="translate(-11.534 -22.125)" fill="#84e9ff"/>
    <path id="Path_33" data-name="Path 33" d="M240.571,79.092a.689.689,0,0,1-.69-.69V75.542a.689.689,0,1,1,1.379,0V78.4A.689.689,0,0,1,240.571,79.092Z" transform="translate(-11.534 -22.125)" fill="#84e9ff"/>
    <path id="Path_34" data-name="Path 34" d="M232.16,77.766a.691.691,0,0,1-.648-.926l.979-2.689a.69.69,0,0,1,1.3.472l-.978,2.689A.69.69,0,0,1,232.16,77.766Z" transform="translate(-7.528 -21.575)" fill="#84e9ff"/>
    <path id="Path_35" data-name="Path 35" d="M232.16,77.766a.691.691,0,0,1-.648-.926l.979-2.689a.69.69,0,0,1,1.3.472l-.978,2.689A.69.69,0,0,1,232.16,77.766Z" transform="translate(-7.528 -21.575)" fill="#84e9ff"/>
    <path id="Path_36" data-name="Path 36" d="M224.765,73.949a.69.69,0,0,1-.528-1.133l1.839-2.192a.69.69,0,1,1,1.057.887L225.293,73.7A.686.686,0,0,1,224.765,73.949Z" transform="translate(-4.006 -19.994)" fill="#84e9ff"/>
    <path id="Path_37" data-name="Path 37" d="M224.765,73.949a.69.69,0,0,1-.528-1.133l1.839-2.192a.69.69,0,1,1,1.057.887L225.293,73.7A.686.686,0,0,1,224.765,73.949Z" transform="translate(-4.006 -19.994)" fill="#84e9ff"/>
    <path id="Path_38" data-name="Path 38" d="M219.277,68.1a.69.69,0,0,1-.346-1.287l2.478-1.431a.69.69,0,1,1,.69,1.195l-2.478,1.43A.685.685,0,0,1,219.277,68.1Z" transform="translate(-1.391 -17.57)" fill="#84e9ff"/>
    <path id="Path_39" data-name="Path 39" d="M219.277,68.1a.69.69,0,0,1-.346-1.287l2.478-1.431a.69.69,0,1,1,.69,1.195l-2.478,1.43A.685.685,0,0,1,219.277,68.1Z" transform="translate(-1.391 -17.57)" fill="#84e9ff"/>
    <path id="Path_40" data-name="Path 40" d="M216.355,60.924a.69.69,0,0,1-.119-1.369l2.817-.5a.69.69,0,1,1,.239,1.358l-2.817.5A.674.674,0,0,1,216.355,60.924Z" transform="translate(0 -14.597)" fill="#84e9ff"/>
    <path id="Path_41" data-name="Path 41" d="M216.355,60.924a.69.69,0,0,1-.119-1.369l2.817-.5a.69.69,0,1,1,.239,1.358l-2.817.5A.674.674,0,0,1,216.355,60.924Z" transform="translate(0 -14.597)" fill="#84e9ff"/>
    <path id="Path_42" data-name="Path 42" d="M219.174,53.333a.731.731,0,0,1-.121-.01l-2.817-.5a.69.69,0,0,1,.239-1.358l2.817.5a.69.69,0,0,1-.118,1.369Z" transform="translate(0 -10.982)" fill="#84e9ff"/>
    <path id="Path_43" data-name="Path 43" d="M219.174,53.333a.731.731,0,0,1-.121-.01l-2.817-.5a.69.69,0,0,1,.239-1.358l2.817.5a.69.69,0,0,1-.118,1.369Z" transform="translate(0 -10.982)" fill="#84e9ff"/>
    <path id="Path_44" data-name="Path 44" d="M221.753,46.242a.686.686,0,0,1-.344-.093l-2.478-1.43a.69.69,0,0,1,.69-1.195l2.478,1.431a.689.689,0,0,1-.346,1.287Z" transform="translate(-1.391 -7.16)" fill="#84e9ff"/>
    <path id="Path_45" data-name="Path 45" d="M221.753,46.242a.686.686,0,0,1-.344-.093l-2.478-1.43a.69.69,0,0,1,.69-1.195l2.478,1.431a.689.689,0,0,1-.346,1.287Z" transform="translate(-1.391 -7.16)" fill="#84e9ff"/>
    <path id="Path_46" data-name="Path 46" d="M226.6,40.462a.689.689,0,0,1-.529-.246l-1.839-2.192a.69.69,0,1,1,1.056-.887l1.839,2.191a.69.69,0,0,1-.528,1.133Z" transform="translate(-4.006 -4.044)" fill="#84e9ff"/>
    <path id="Path_47" data-name="Path 47" d="M226.6,40.462a.689.689,0,0,1-.529-.246l-1.839-2.192a.69.69,0,1,1,1.056-.887l1.839,2.191a.69.69,0,0,1-.528,1.133Z" transform="translate(-4.006 -4.044)" fill="#84e9ff"/>
    <path id="Path_48" data-name="Path 48" d="M233.139,36.689a.689.689,0,0,1-.648-.454l-.979-2.689a.69.69,0,0,1,1.3-.472l.978,2.689a.689.689,0,0,1-.648.925Z" transform="translate(-7.528 -2.01)" fill="#84e9ff"/>
    <path id="Path_49" data-name="Path 49" d="M233.139,36.689a.689.689,0,0,1-.648-.454l-.979-2.689a.69.69,0,0,1,1.3-.472l.978,2.689a.689.689,0,0,1-.648.925Z" transform="translate(-7.528 -2.01)" fill="#84e9ff"/>
    <path id="Path_50" data-name="Path 50" d="M240.571,35.379a.689.689,0,0,1-.69-.69v-2.86a.689.689,0,1,1,1.379,0v2.86A.689.689,0,0,1,240.571,35.379Z" transform="translate(-11.534 -1.304)" fill="#84e9ff"/>
  </g>
</svg>
