<svg xmlns="http://www.w3.org/2000/svg" width="30" height="30" viewBox="0 0 30 30">
  <g id="Group_3391" data-name="Group 3391" transform="translate(-1537 -1132)">
    <g id="Ellipse_49" data-name="Ellipse 49" transform="translate(1537 1132)" fill="none" stroke="#9d5aa0" stroke-width="1">
      <circle cx="15" cy="15" r="15" stroke="none"/>
      <circle cx="15" cy="15" r="14.5" fill="none"/>
    </g>
    <g id="Group_3389" data-name="Group 3389" transform="translate(1332.449 875.77)">
      <path id="Path_3533" data-name="Path 3533" d="M219.3,276.964a3.369,3.369,0,0,1-3.456-3.267.625.625,0,0,1,1.249,0,2.216,2.216,0,1,0,2.207-2.017,3.272,3.272,0,1,1,3.457-3.266.625.625,0,0,1-1.249,0,2.216,2.216,0,1,0-2.208,2.017,3.272,3.272,0,1,1,0,6.534Z" transform="translate(0.255 0.182)" fill="#9d5aa0"/>
      <path id="Path_3534" data-name="Path 3534" d="M219.219,278.064a.624.624,0,0,1-.624-.625v-12.7a.624.624,0,1,1,1.248,0v12.7A.624.624,0,0,1,219.219,278.064Z" transform="translate(0.339 0.15)" fill="#9d5aa0"/>
      <path id="Path_3535" data-name="Path 3535" d="M219.46,279.854a8.716,8.716,0,1,1,8.717-8.716A8.726,8.726,0,0,1,219.46,279.854Zm0-16.183a7.467,7.467,0,1,0,7.467,7.467A7.476,7.476,0,0,0,219.46,263.671Z" transform="translate(0.098 0.098)" fill="#9d5aa0"/>
    </g>
  </g>
</svg>
