<svg xmlns="http://www.w3.org/2000/svg" width="44" height="44" viewBox="0 0 44 44">
  <g id="Group_3513" data-name="Group 3513" transform="translate(-12259 -7543)">
    <circle id="Ellipse_48" data-name="Ellipse 48" cx="22" cy="22" r="22" transform="translate(12259 7543)" fill="#ca9ee6"/>
    <path id="Path_3626" data-name="Path 3626" d="M164.67,154.926a1.945,1.945,0,0,0,1.427-1.343l.723-2.125.291.1a.256.256,0,0,0,.324-.16l.388-1.14a.256.256,0,0,0-.16-.324l-9.367-3.185a.256.256,0,0,0-.324.16l-.388,1.14a.256.256,0,0,0,.16.324l.291.1-.736,2.164a1.567,1.567,0,0,0,.318,1.888l1.9,2.27-.211.621c-.725.157-2.621.57-2.876.644A1.945,1.945,0,0,0,155,157.4l-.622,1.83-.291-.1a.257.257,0,0,0-.324.16l-.388,1.14a.256.256,0,0,0,.16.324l9.367,3.185a.256.256,0,0,0,.324-.16l.388-1.14a.256.256,0,0,0-.16-.324l-.291-.1.635-1.868a1.566,1.566,0,0,0-.318-1.888l-1.9-2.27.211-.621C162.519,155.413,164.415,155,164.67,154.926Zm-3.959,1.657,2.061,2.468a1.191,1.191,0,0,1,.265.387,1.318,1.318,0,0,1-.111.615l-.635,1.868-7.044-2.4.622-1.83a1.042,1.042,0,0,1,.812-.756c.2-.059,1.947-.441,3.069-.684a.46.46,0,0,0,.338-.3l.378-1.112a.46.46,0,0,0-.082-.443l-2.055-2.461-.006-.008a1.189,1.189,0,0,1-.265-.387,1.319,1.319,0,0,1,.111-.615l.736-2.164,7.045,2.4-.723,2.125a1.041,1.041,0,0,1-.812.756c-.2.059-1.947.441-3.069.684a.46.46,0,0,0-.338.3l-.378,1.112A.46.46,0,0,0,160.711,156.583Z" transform="translate(12120.567 7410.511)" fill="#fff"/>
    <path id="Path_3627" data-name="Path 3627" d="M231.165,222.947c.42-.052,2.97-.576,2.97-.576s.2-.083-.05-.126a15.951,15.951,0,0,1-2.939-.174c-1.223-.315-1.474-1.4-2.269-1.47-.173-.016-.2.052-.047.228s1.529,1.7,1.719,1.908A.583.583,0,0,0,231.165,222.947Z" transform="translate(12050.657 7341.999)" fill="#fff"/>
    <path id="Path_3628" data-name="Path 3628" d="M194.161,314.837c-.262.116-.4.217.056.373l4.6,1.565c.477.162.347-.062.2-.351a3.66,3.66,0,0,0-2-1.812A4.013,4.013,0,0,0,194.161,314.837Z" transform="translate(12082.948 7254.959)" fill="#fff"/>
    <path id="Path_3629" data-name="Path 3629" d="M253.39,258.39a.162.162,0,1,0,.066.188A.143.143,0,0,0,253.39,258.39Z" transform="translate(12027.95 7306.951)" fill="#fff"/>
    <path id="Path_3630" data-name="Path 3630" d="M250.569,266.686a.162.162,0,1,0,.066.188A.143.143,0,0,0,250.569,266.686Z" transform="translate(12030.566 7299.256)" fill="#fff"/>
    <path id="Path_3631" data-name="Path 3631" d="M247.648,275.279a.162.162,0,1,0-.066-.188A.143.143,0,0,0,247.648,275.279Z" transform="translate(12033.182 7291.562)" fill="#fff"/>
    <path id="Path_3632" data-name="Path 3632" d="M244.827,283.574a.162.162,0,1,0-.066-.188A.143.143,0,0,0,244.827,283.574Z" transform="translate(12035.799 7283.868)" fill="#fff"/>
    <path id="Path_3633" data-name="Path 3633" d="M242.006,291.871a.162.162,0,1,0-.066-.188A.143.143,0,0,0,242.006,291.871Z" transform="translate(12038.415 7276.172)" fill="#fff"/>
    <path id="Path_3634" data-name="Path 3634" d="M239.186,300.167a.162.162,0,1,0-.066-.188A.143.143,0,0,0,239.186,300.167Z" transform="translate(12041.03 7268.478)" fill="#fff"/>
    <path id="Path_3635" data-name="Path 3635" d="M236.364,308.462a.162.162,0,1,0-.066-.188A.143.143,0,0,0,236.364,308.462Z" transform="translate(12043.648 7260.783)" fill="#fff"/>
    <path id="Path_3636" data-name="Path 3636" d="M79.692,75.3c-.206.116-.418.228-.63.331-.034.017-.068.035-.1.055s-.068.026-.1.041a11.542,11.542,0,0,1-2.871.907l-.038,0c-.233.041-.471.076-.705.1h-.008a11.925,11.925,0,0,1-1.308.072,11.7,11.7,0,0,1-11.015-7.8c-.024-.069-.049-.138-.072-.208a11.686,11.686,0,0,1,0-7.363l.025-.076c.023-.068.047-.135.071-.2l.034-.094A11.728,11.728,0,0,1,71.127,53.8h.007l.168-.04.018-.005a11.675,11.675,0,0,1,2.551-.294l.01,1.2c0,.373.238.481.523.24l2.537-2.15a.546.546,0,0,0-.007-.868l-2.572-2.107c-.288-.236-.522-.124-.519.248l.01,1.2A13.826,13.826,0,0,0,64.09,55.3q-.386.386-.737.8l0,0-.025.031a13.8,13.8,0,0,0-3.3,8.6c0,.025,0,.049-.006.075,0,.106,0,.214,0,.321,0,.175,0,.353.01.528,0,.021,0,.041.005.061a13.8,13.8,0,0,0,2.884,7.925l.017.024c.172.222.354.442.54.654.012.014.025.026.037.038q.282.319.585.623a13.817,13.817,0,0,0,7.493,3.88l.026,0,.019,0a14.086,14.086,0,0,0,2.3.19,13.8,13.8,0,0,0,5.875-1.3,1.231,1.231,0,0,1,.236-.113c.253-.124.506-.257.752-.4a1.119,1.119,0,0,0-1.1-1.948Z" transform="translate(12207.152 7500.561)" fill="#fff"/>
    <path id="Path_3637" data-name="Path 3637" d="M377.719,143.06a1.119,1.119,0,0,0,1.858-1.248c-.157-.234-.324-.466-.495-.69a1.119,1.119,0,1,0-1.778,1.36C377.447,142.669,377.587,142.864,377.719,143.06Z" transform="translate(11913.063 7416.125)" fill="#fff"/>
    <path id="Path_3638" data-name="Path 3638" d="M404.909,195.357c.072.225.138.455.2.685a1.119,1.119,0,0,0,2.169-.553c-.07-.273-.148-.547-.234-.815a1.119,1.119,0,1,0-2.132.683Z" transform="translate(11887.295 7366.767)" fill="#fff"/>
    <path id="Path_3639" data-name="Path 3639" d="M365.3,363.877a1.119,1.119,0,0,0-1.579.115c-.155.179-.317.355-.482.524a1.119,1.119,0,1,0,1.6,1.565c.2-.2.39-.411.574-.625A1.119,1.119,0,0,0,365.3,363.877Z" transform="translate(11926.191 7209.355)" fill="#fff"/>
    <path id="Path_3640" data-name="Path 3640" d="M413.826,253.357a1.118,1.118,0,0,0-1.152,1.085c-.007.237-.022.476-.043.711a1.119,1.119,0,0,0,1.012,1.217c.035,0,.069,0,.1,0a1.119,1.119,0,0,0,1.113-1.017c.026-.281.043-.566.052-.849A1.119,1.119,0,0,0,413.826,253.357Z" transform="translate(11880.087 7311.615)" fill="#fff"/>
    <path id="Path_3641" data-name="Path 3641" d="M398.839,312.269a1.119,1.119,0,0,0-1.45.634c-.086.22-.18.441-.28.656a1.119,1.119,0,1,0,2.031.941c.118-.256.231-.518.333-.781A1.119,1.119,0,0,0,398.839,312.269Z" transform="translate(11894.577 7257.043)" fill="#fff"/>
    <path id="Path_3642" data-name="Path 3642" d="M335.668,102.118a1.119,1.119,0,0,0-.233-1.566c-.226-.168-.461-.33-.7-.484a1.119,1.119,0,0,0-1.22,1.877c.2.129.4.266.586.407a1.119,1.119,0,0,0,1.565-.234Z" transform="translate(11953.937 7453.964)" fill="#fff"/>
  </g>
</svg>
