<svg xmlns="http://www.w3.org/2000/svg" width="44" height="44" viewBox="0 0 44 44">
  <g id="dwell-time" opacity="1">
    <g id="Group_3448" data-name="Group 3448">
      <circle id="Ellipse_48" data-name="Ellipse 48" cx="22" cy="22" r="22" fill="#9d5aa0"/>
    </g>
    <g id="Group_3461" data-name="Group 3461" transform="translate(9.912 10.629)">
      <path id="Path_3556" data-name="Path 3556" d="M404.357,739.016c-.194.048-.392.091-.589.127a.947.947,0,0,0,.345,1.862c.234-.043.47-.095.7-.152a.947.947,0,1,0-.458-1.837Z" transform="translate(-390.203 -717.651)" fill="#fff"/>
      <path id="Path_3557" data-name="Path 3557" d="M438.091,678.322a.947.947,0,0,0,1.8-.6c-.075-.226-.158-.453-.246-.674a.947.947,0,1,0-1.758.7C437.958,677.941,438.028,678.131,438.091,678.322Z" transform="translate(-416.935 -669.647)" fill="#fff"/>
      <path id="Path_3558" data-name="Path 3558" d="M418.843,732.771c-.167.11-.339.217-.513.317a.947.947,0,1,0,.946,1.64c.206-.119.412-.246.611-.377a.947.947,0,0,0-1.044-1.58Z" transform="translate(-401.613 -712.758)" fill="#fff"/>
      <path id="Path_3559" data-name="Path 3559" d="M443.016,692.86a.947.947,0,1,0-1.892.075c.008.2.01.4.005.6a.947.947,0,1,0,1.893.042C443.027,693.34,443.025,693.1,443.016,692.86Z" transform="translate(-419.474 -681.541)" fill="#fff"/>
      <path id="Path_3560" data-name="Path 3560" d="M431.964,721.942a.946.946,0,0,0-1.326.189c-.12.16-.247.318-.376.471a.947.947,0,0,0,.107,1.335c.023.019.046.037.069.053a.947.947,0,0,0,1.265-.161c.155-.182.306-.37.449-.562A.947.947,0,0,0,431.964,721.942Z" transform="translate(-410.963 -704.42)" fill="#fff"/>
      <path id="Path_3561" data-name="Path 3561" d="M439.544,707.693a.947.947,0,0,0-1.186.62c-.06.191-.126.382-.2.57a.947.947,0,0,0,1.769.674c.085-.223.164-.451.235-.677A.947.947,0,0,0,439.544,707.693Z" transform="translate(-417.151 -693.593)" fill="#fff"/>
      <path id="Path_3562" data-name="Path 3562" d="M357.958,668.644a9.773,9.773,0,0,1-2.428-.772l-.027-.014c-.181-.085-.362-.177-.538-.273l0,0a10.075,10.075,0,0,1-.942-.589,9.879,9.879,0,0,1,.041-16.182l.034-.024a9.9,9.9,0,0,1,11.091-.089l-.739,1.069c-.206.3-.079.514.281.482l3.213-.288a.53.53,0,0,0,.479-.693l-.863-3.108c-.1-.348-.344-.39-.55-.093l-.741,1.071a11.692,11.692,0,0,0-8.567-1.822c-.3.052-.6.117-.9.191H356.8l-.034.01a11.674,11.674,0,0,0-6.473,4.338c-.014.016-.028.032-.041.049-.054.073-.107.146-.159.22-.085.121-.169.246-.25.37-.01.015-.018.03-.026.046a11.672,11.672,0,0,0-1.866,6.885c0,.008,0,.016,0,.024.011.237.03.478.055.715,0,.015,0,.03.007.045.027.239.06.477.1.716a11.685,11.685,0,0,0,3.295,6.336l.012.013,0,0a11.944,11.944,0,0,0,1.508,1.261,11.673,11.673,0,0,0,4.694,1.965.947.947,0,0,0,.334-1.864Z" transform="translate(-347.935 -647.143)" fill="#fff"/>
      <path id="Path_3563" data-name="Path 3563" d="M393.589,664.906a.766.766,0,0,0-.766.766V673.3l6.979,3.608a.766.766,0,1,0,.7-1.361l-6.151-3.18v-6.7A.765.765,0,0,0,393.589,664.906Z" transform="translate(-382.395 -660.779)" fill="#fff"/>
    </g>
  </g>
</svg>
