<svg xmlns="http://www.w3.org/2000/svg" width="21.333" height="20.977" viewBox="0 0 21.333 20.977">
  <g id="Group_800" data-name="Group 800" transform="translate(4255 5762.477)">
    <path id="Path_101" data-name="Path 101" d="M120.88,139.653a.388.388,0,0,1-.356-.543l2.513-5.764h-3.323a.388.388,0,0,1-.347-.562l3.519-7a.388.388,0,0,1,.347-.214h4.51a.388.388,0,0,1,.317.611l-2.953,4.2h4.023a.388.388,0,0,1,.278.658l-8.251,8.5A.386.386,0,0,1,120.88,139.653Zm-.536-7.083h3.286a.388.388,0,0,1,.356.543l-1.9,4.349,6.124-6.31H124.36a.388.388,0,0,1-.317-.611l2.953-4.2h-3.523Z" transform="translate(-4368.756 -5881.153)" fill="#8aa3cf"/>
    <path id="Path_102" data-name="Path 102" d="M131.18,111.615a.388.388,0,0,1-.388-.388V109.17a.388.388,0,1,1,.776,0v2.056A.388.388,0,0,1,131.18,111.615Z" transform="translate(-4375.513 -5871.259)" fill="#8aa3cf"/>
    <path id="Path_103" data-name="Path 103" d="M138.16,113.023a.388.388,0,0,1-.365-.521l.7-1.932a.388.388,0,1,1,.729.265l-.7,1.932A.389.389,0,0,1,138.16,113.023Z" transform="translate(-4379.627 -5872.163)" fill="#8aa3cf"/>
    <path id="Path_104" data-name="Path 104" d="M144.3,117.08a.388.388,0,0,1-.3-.637l1.322-1.575a.388.388,0,0,1,.595.5l-1.322,1.575A.388.388,0,0,1,144.3,117.08Z" transform="translate(-4383.245 -5874.764)" fill="#8aa3cf"/>
    <path id="Path_105" data-name="Path 105" d="M148.855,123.295a.388.388,0,0,1-.194-.724l1.781-1.028a.388.388,0,1,1,.388.672l-1.781,1.028A.387.387,0,0,1,148.855,123.295Z" transform="translate(-4385.93 -5878.749)" fill="#8aa3cf"/>
    <path id="Path_106" data-name="Path 106" d="M151.278,130.918a.388.388,0,0,1-.067-.77l2.025-.357a.388.388,0,0,1,.135.764l-2.025.357A.378.378,0,0,1,151.278,130.918Z" transform="translate(-4387.358 -5883.637)" fill="#8aa3cf"/>
    <path id="Path_107" data-name="Path 107" d="M153.3,138.875a.38.38,0,0,1-.068-.006l-2.025-.357a.388.388,0,0,1,.135-.764l2.025.357a.388.388,0,0,1-.067.77Z" transform="translate(-4387.358 -5888.327)" fill="#8aa3cf"/>
    <path id="Path_108" data-name="Path 108" d="M150.635,146.207a.387.387,0,0,1-.194-.052l-1.781-1.028a.388.388,0,0,1,.388-.672l1.781,1.028a.388.388,0,0,1-.194.724Z" transform="translate(-4385.93 -5892.252)" fill="#8aa3cf"/>
    <path id="Path_109" data-name="Path 109" d="M123.19,113.023a.388.388,0,0,1-.365-.255l-.7-1.932a.388.388,0,1,1,.729-.265l.7,1.932a.388.388,0,0,1-.232.5A.383.383,0,0,1,123.19,113.023Z" transform="translate(-4370.39 -5872.163)" fill="#8aa3cf"/>
    <path id="Path_110" data-name="Path 110" d="M116.164,117.08a.388.388,0,0,1-.3-.138l-1.322-1.575a.388.388,0,0,1,.595-.5l1.322,1.575a.388.388,0,0,1-.3.637Z" transform="translate(-4365.885 -5874.764)" fill="#8aa3cf"/>
    <path id="Path_111" data-name="Path 111" d="M110.949,123.295a.385.385,0,0,1-.193-.052l-1.781-1.028a.388.388,0,1,1,.388-.672l1.781,1.028a.388.388,0,0,1-.194.724Z" transform="translate(-4362.541 -5878.749)" fill="#8aa3cf"/>
    <path id="Path_112" data-name="Path 112" d="M108.175,130.918a.378.378,0,0,1-.068-.006l-2.025-.357a.388.388,0,0,1,.135-.764l2.025.357a.388.388,0,0,1-.067.77Z" transform="translate(-4360.761 -5883.637)" fill="#8aa3cf"/>
    <path id="Path_113" data-name="Path 113" d="M106.149,138.875a.388.388,0,0,1-.067-.77l2.025-.357a.388.388,0,0,1,.135.764l-2.025.357A.388.388,0,0,1,106.149,138.875Z" transform="translate(-4360.761 -5888.327)" fill="#8aa3cf"/>
    <path id="Path_114" data-name="Path 114" d="M109.169,146.207a.388.388,0,0,1-.194-.724l1.781-1.028a.388.388,0,0,1,.388.672l-1.781,1.028A.386.386,0,0,1,109.169,146.207Z" transform="translate(-4362.541 -5892.252)" fill="#8aa3cf"/>
    <path id="Path_115" data-name="Path 115" d="M127.9,129.707a.389.389,0,0,1-.342-.57l1.785-3.363a.388.388,0,1,1,.685.364l-1.785,3.362A.387.387,0,0,1,127.9,129.707Z" transform="translate(-4373.58 -5881.152)" fill="#8aa3cf"/>
  </g>
</svg>
