<svg xmlns="http://www.w3.org/2000/svg" width="71.187" height="70" viewBox="0 0 71.187 70">
  <g id="icon-energy" opacity="0.15">
    <path id="Path_101" data-name="Path 101" d="M124.511,172.566a1.294,1.294,0,0,1-1.187-1.812l8.385-19.235H120.621a1.294,1.294,0,0,1-1.157-1.876l11.742-23.362a1.294,1.294,0,0,1,1.157-.713h15.05a1.295,1.295,0,0,1,1.059,2.039l-9.855,14h13.426a1.3,1.3,0,0,1,.929,2.2L125.44,172.173A1.287,1.287,0,0,1,124.511,172.566Zm-1.79-23.635h10.965a1.295,1.295,0,0,1,1.187,1.812l-6.327,14.513L148.982,144.2H136.123a1.3,1.3,0,0,1-1.059-2.04l9.854-14H133.16Z" transform="translate(-100.738 -102.566)" fill="#8aa3cf"/>
    <path id="Path_102" data-name="Path 102" d="M132.087,118.234a1.3,1.3,0,0,1-1.295-1.295v-6.862a1.294,1.294,0,1,1,2.588,0v6.862A1.294,1.294,0,0,1,132.087,118.234Z" transform="translate(-96.493 -108.782)" fill="#8aa3cf"/>
    <path id="Path_103" data-name="Path 103" d="M139.067,119.352a1.294,1.294,0,0,1-1.217-1.738l2.347-6.447a1.295,1.295,0,1,1,2.434.885l-2.347,6.449A1.3,1.3,0,0,1,139.067,119.352Z" transform="translate(-93.908 -108.214)" fill="#8aa3cf"/>
    <path id="Path_104" data-name="Path 104" d="M145.2,122.574a1.294,1.294,0,0,1-.991-2.127l4.411-5.256a1.3,1.3,0,0,1,1.984,1.665l-4.411,5.256A1.3,1.3,0,0,1,145.2,122.574Z" transform="translate(-91.635 -106.58)" fill="#8aa3cf"/>
    <path id="Path_105" data-name="Path 105" d="M149.762,127.511a1.294,1.294,0,0,1-.648-2.416l5.942-3.431a1.294,1.294,0,1,1,1.295,2.242l-5.942,3.431A1.292,1.292,0,0,1,149.762,127.511Z" transform="translate(-89.948 -104.076)" fill="#8aa3cf"/>
    <path id="Path_106" data-name="Path 106" d="M152.183,133.566A1.294,1.294,0,0,1,151.96,131l6.758-1.192a1.295,1.295,0,0,1,.449,2.55l-6.758,1.192A1.259,1.259,0,0,1,152.183,133.566Z" transform="translate(-89.05 -101.005)" fill="#8aa3cf"/>
    <path id="Path_107" data-name="Path 107" d="M158.944,141.524a1.262,1.262,0,0,1-.226-.021l-6.758-1.191a1.295,1.295,0,0,1,.449-2.55l6.758,1.191a1.3,1.3,0,0,1-.223,2.571Z" transform="translate(-89.05 -98.058)" fill="#8aa3cf"/>
    <path id="Path_108" data-name="Path 108" d="M155.7,150.423a1.291,1.291,0,0,1-.647-.173l-5.942-3.431a1.3,1.3,0,0,1,1.295-2.243l5.942,3.431a1.294,1.294,0,0,1-.648,2.416Z" transform="translate(-89.948 -95.592)" fill="#8aa3cf"/>
    <path id="Path_109" data-name="Path 109" d="M125.74,119.352a1.3,1.3,0,0,1-1.217-.851l-2.346-6.449a1.295,1.295,0,1,1,2.434-.885l2.346,6.447a1.3,1.3,0,0,1-.774,1.659A1.278,1.278,0,0,1,125.74,119.352Z" transform="translate(-99.712 -108.214)" fill="#8aa3cf"/>
    <path id="Path_110" data-name="Path 110" d="M120.16,122.574a1.3,1.3,0,0,1-.992-.462l-4.411-5.256a1.3,1.3,0,0,1,1.984-1.665l4.411,5.256a1.295,1.295,0,0,1-.992,2.127Z" transform="translate(-102.542 -106.58)" fill="#8aa3cf"/>
    <path id="Path_111" data-name="Path 111" d="M116.016,127.511a1.283,1.283,0,0,1-.645-.174l-5.943-3.431a1.294,1.294,0,1,1,1.295-2.242l5.942,3.431a1.294,1.294,0,0,1-.648,2.416Z" transform="translate(-104.644 -104.076)" fill="#8aa3cf"/>
    <path id="Path_112" data-name="Path 112" d="M113.815,133.566a1.259,1.259,0,0,1-.226-.019l-6.758-1.192a1.295,1.295,0,0,1,.451-2.55L114.039,131a1.295,1.295,0,0,1-.223,2.569Z" transform="translate(-105.761 -101.005)" fill="#8aa3cf"/>
    <path id="Path_113" data-name="Path 113" d="M107.054,141.524a1.3,1.3,0,0,1-.223-2.571l6.758-1.191a1.295,1.295,0,0,1,.449,2.55l-6.757,1.191A1.288,1.288,0,0,1,107.054,141.524Z" transform="translate(-105.761 -98.058)" fill="#8aa3cf"/>
    <path id="Path_114" data-name="Path 114" d="M110.076,150.423a1.294,1.294,0,0,1-.648-2.416l5.943-3.431a1.295,1.295,0,0,1,1.294,2.243l-5.942,3.431A1.287,1.287,0,0,1,110.076,150.423Z" transform="translate(-104.644 -95.592)" fill="#8aa3cf"/>
    <path id="Path_115" data-name="Path 115" d="M128.8,139.381a1.3,1.3,0,0,1-1.143-1.9l5.957-11.221a1.295,1.295,0,1,1,2.287,1.214l-5.957,11.22A1.292,1.292,0,0,1,128.8,139.381Z" transform="translate(-97.708 -102.566)" fill="#8aa3cf"/>
  </g>
</svg>
