<svg id="icon-energy-hvac" xmlns="http://www.w3.org/2000/svg" width="25.441" height="30" viewBox="0 0 25.441 30">
  <g id="icon-energy-cons" transform="translate(4.917)">
    <path id="Path_152" data-name="Path 152" d="M91.736,89.847a.45.45,0,0,0-.456-.055l-8.826,3.881L81.252,80.7a.446.446,0,0,0-.414-.414.463.463,0,0,0-.47.359l-4.047,19.737a.415.415,0,0,0,.152.442.448.448,0,0,0,.47.055l8.812-3.867,1.091,12.859a.471.471,0,0,0,.428.414H87.3a.473.473,0,0,0,.456-.359L91.9,90.3A.481.481,0,0,0,91.736,89.847ZM87.5,106.725,86.6,96.31a.478.478,0,0,0-.207-.345.561.561,0,0,0-.235-.069l-.193.041-8.577,3.757,3.26-15.856.967,10.538a.458.458,0,0,0,.235.345.411.411,0,0,0,.4.028l8.577-3.771Z" transform="translate(-76.308 -80.288)" fill="#fff"/>
  </g>
  <g id="Group_835" data-name="Group 835" transform="translate(0 4.724)">
    <path id="Path_153" data-name="Path 153" d="M88.673,102.715a11.82,11.82,0,0,1-8.536-19.986l.732.884,1.105-2.983-3.135.539.718.856a12.594,12.594,0,0,0-3.6,8.881,12.732,12.732,0,0,0,12.721,12.721.457.457,0,0,0,.456-.442A.463.463,0,0,0,88.673,102.715Z" transform="translate(-75.952 -80.63)" fill="#fff"/>
  </g>
  <g id="Group_836" data-name="Group 836" transform="translate(12.265 2.28)">
    <path id="Path_154" data-name="Path 154" d="M90.017,93.174A12.732,12.732,0,0,0,77.3,80.453a.448.448,0,0,0-.456.442.454.454,0,0,0,.456.47,11.81,11.81,0,0,1,8.522,19.986l-.718-.87-1.1,2.969,3.135-.525-.732-.87A12.608,12.608,0,0,0,90.017,93.174Z" transform="translate(-76.84 -80.453)" fill="#fff"/>
  </g>
</svg>
