<?xml version="1.0" encoding="utf-8"?>
<!-- Generator: Adobe Illustrator 26.0.0, SVG Export Plug-In . SVG Version: 6.00 Build 0)  -->
<svg version="1.1" id="Layer_1" xmlns="http://www.w3.org/2000/svg" xmlns:xlink="http://www.w3.org/1999/xlink" x="0px" y="0px"
	 viewBox="0 0 14.6 20.1" style="enable-background:new 0 0 14.6 20.1;" xml:space="preserve">
<style type="text/css">
	.st0{fill:#8AA3CF;}
</style>
<g id="Group_771" transform="translate(1258.457 1154.641)">
	<path id="Path_130" class="st0" d="M-1256.2-1134.5c-0.3,0-0.6-0.2-0.6-0.6c0-0.1,0-0.2,0-0.2l3.6-8.2h-4.8c-0.3,0-0.6-0.2-0.6-0.6
		c0-0.1,0-0.2,0.1-0.2l5-10c0.1-0.2,0.3-0.3,0.5-0.3h6.5c0.3,0,0.6,0.2,0.6,0.6c0,0.1,0,0.2-0.1,0.3l-4.2,6h5.8
		c0.3,0,0.6,0.2,0.6,0.6c0,0.1-0.1,0.3-0.2,0.4l-11.8,12.2C-1255.9-1134.6-1256.1-1134.5-1256.2-1134.5z M-1257-1144.6h4.7
		c0.3,0,0.6,0.2,0.6,0.6c0,0.1,0,0.2,0,0.2l-2.7,6.2l8.8-9h-5.5c-0.3,0-0.6-0.3-0.6-0.6c0-0.1,0-0.2,0.1-0.3l4.2-6h-5L-1257-1144.6z
		"/>
</g>
</svg>
