<svg xmlns="http://www.w3.org/2000/svg" width="18.165" height="25.666" viewBox="0 0 18.165 25.666">
  <g id="Group_3688" data-name="Group 3688" transform="translate(-9.784 -103.588)">
    <g id="Group_3687" data-name="Group 3687" transform="translate(9.784 103.588)">
      <path id="Path_3365" data-name="Path 3365" d="M10.833,106.965v18.61a.354.354,0,0,0,.707,0V106.967H26.879a1.07,1.07,0,1,0,0-2.14H15.923v-.886a.355.355,0,0,0-.354-.354H12.647a.355.355,0,0,0-.354.354v.886H10.854a1.069,1.069,0,0,0-.021,2.138Zm.021-1.43h1.793a.353.353,0,0,0,.354-.354V104.3h2.215v.532H14.107a.354.354,0,0,0,0,.707H26.879a.363.363,0,0,1,0,.727H10.854a.363.363,0,0,1,0-.727Z" transform="translate(-9.784 -103.588)" fill="#fff"/>
      <path id="Path_3366" data-name="Path 3366" d="M14.079,127.293h1.082a.353.353,0,1,0,0-.706H10.854a.363.363,0,0,1,0-.727H26.879a.363.363,0,0,1,0,.727H16.574a.353.353,0,1,0,0,.706H26.879a1.069,1.069,0,0,0,.021-2.138v-18.6a.354.354,0,1,0-.707,0v18.6H10.854a1.07,1.07,0,1,0,0,2.14h2.057" transform="translate(-9.784 -101.627)" fill="#fff"/>
    </g>
    <path id="Path_3367" data-name="Path 3367" d="M12.446,114.479l-.179.366a.377.377,0,0,0,.338.545h3.423v5.543a.375.375,0,0,0,.292.366.345.345,0,0,0,.084.01.378.378,0,0,0,.34-.21l3.8-7.741a.377.377,0,0,0-.338-.543H16.783v-5.543a.377.377,0,0,0-.716-.166l-2.166,4.41a.377.377,0,0,0,.678.333l1.45-2.954v4.3a.377.377,0,0,0,.376.378h3.2l-2.817,5.738v-4.3a.377.377,0,0,0-.378-.376H13.211l.72-1.469a.377.377,0,0,0-.676-.333l-.438.891" transform="translate(1.836 2.483)" fill="#fff"/>
  </g>
</svg>
