<svg xmlns="http://www.w3.org/2000/svg" xmlns:xlink="http://www.w3.org/1999/xlink" width="176" height="41" viewBox="0 0 176 41">
  <defs>
    <linearGradient id="linear-gradient" x1="0.304" y1="0.195" x2="0.723" y2="0.641" gradientUnits="objectBoundingBox">
      <stop offset="0" stop-color="#fff" stop-opacity="0.149"/>
      <stop offset="1" stop-color="#fff" stop-opacity="0.071"/>
    </linearGradient>
  </defs>
  <g id="Group_709" data-name="Group 709" transform="translate(-880 -485)">
    <g id="Rectangle_221" data-name="Rectangle 221" transform="translate(880 485)" stroke="rgba(255,255,255,0.1)" stroke-width="1" fill="url(#linear-gradient)">
      <rect width="176" height="41" rx="6" stroke="none"/>
      <rect x="0.5" y="0.5" width="175" height="40" rx="5.5" fill="none"/>
    </g>
    <g id="Group_707" data-name="Group 707" transform="translate(-9)">
      <g id="Group_710" data-name="Group 710" transform="translate(769.424 446.118)">
        <path id="Path_131" data-name="Path 131" d="M160.875,58.3a.3.3,0,0,0,.148.039.305.305,0,0,0,.16-.045l6.225-3.832a.3.3,0,0,0,.077-.45,9.325,9.325,0,0,0-6.437-3.4.312.312,0,0,0-.23.079.3.3,0,0,0-.1.224v7.119A.3.3,0,0,0,160.875,58.3Zm.453-7.048a8.726,8.726,0,0,1,5.461,2.877l-5.461,3.361Z" transform="translate(-13.539 -0.002)" fill="#8aa3cf"/>
        <path id="Path_132" data-name="Path 132" d="M146.291,58.956V50.914a.3.3,0,0,0-.329-.3,9.337,9.337,0,0,0-8.516,9.255,9.22,9.22,0,0,0,.813,3.8.3.3,0,0,0,.188.166.3.3,0,0,0,.09.014.305.305,0,0,0,.159-.045l7.45-4.585A.3.3,0,0,0,146.291,58.956Zm-.609-.17-7,4.311a8.606,8.606,0,0,1-.624-3.231,8.728,8.728,0,0,1,7.628-8.615Z" fill="#8aa3cf"/>
        <path id="Path_133" data-name="Path 133" d="M148.853,73.439a.3.3,0,0,0-.417-.1L141.2,77.791a.3.3,0,0,0-.138.194.3.3,0,0,0,.044.234,9.292,9.292,0,0,0,12.2,2.987.3.3,0,0,0,.112-.427Zm-.016,8.305a8.67,8.67,0,0,1-7.041-3.6l6.7-4.124,4.234,6.806A8.7,8.7,0,0,1,148.837,81.744Z" transform="translate(-2.102 -13.197)" fill="#8aa3cf"/>
        <path id="Path_134" data-name="Path 134" d="M172.335,62.484a.3.3,0,0,0-.189-.145.31.31,0,0,0-.235.035l-6.786,4.177a.3.3,0,0,0-.137.189.308.308,0,0,0,.038.231l4.538,7.294a.308.308,0,0,0,.206.139.362.362,0,0,0,.052,0,.305.305,0,0,0,.189-.066,9.283,9.283,0,0,0,2.323-11.859Zm.233,7.062-3.777,2.325-.815-1.31,4.943-3.042A8.662,8.662,0,0,1,172.568,69.546Zm-4.913.5-.815-1.309,5.87-3.613a8.671,8.671,0,0,1,.214,1.679Zm4.3-6.983a8.684,8.684,0,0,1,.592,1.447l-6.029,3.711-.815-1.31ZM169.9,73.649l-.785-1.261,3.124-1.922A8.663,8.663,0,0,1,169.9,73.649Z" transform="translate(-16.018 -6.818)" fill="#8aa3cf"/>
      </g>
    </g>
  </g>
</svg>
