<svg id="filter-icon-ac" xmlns="http://www.w3.org/2000/svg" width="47" height="47" viewBox="0 0 47 47">
  <rect id="Rectangle_37" data-name="Rectangle 37" width="47" height="47" rx="3" fill="#8563b777" opacity="0.99"/>
  <path id="Path_117" data-name="Path 117" d="M22.292,10.072a.678.678,0,0,0-.613-.389h-21a.678.678,0,0,0-.523,1.109l8.073,9.792v9.029a.678.678,0,0,0,.978.607l4.536-2.248a.678.678,0,0,0,.377-.606l.009-6.782L22.2,10.792A.677.677,0,0,0,22.292,10.072Zm-9.364,9.838a.677.677,0,0,0-.155.43l-.009,6.6L9.583,28.521V20.34a.677.677,0,0,0-.155-.431L2.114,11.038H20.242Z" transform="translate(12.541 3.921)" fill="#fff"/>
</svg>
