<svg xmlns="http://www.w3.org/2000/svg" width="20.357" height="30" viewBox="0 0 20.357 30">
  <g id="gas-icon" transform="translate(-277 -356)">
    <path id="Path_51" data-name="Path 51" d="M296.821,366.948a.536.536,0,1,0,0-1.071h-.107v-6.366h.107a.536.536,0,1,0,0-1.071H282.972v-1.368A1.073,1.073,0,0,0,281.9,356h-1.954a1.072,1.072,0,0,0-1.071,1.071v1.368h-1.339a.536.536,0,1,0,0,1.071h.107v6.366h-.107a.536.536,0,0,0,0,1.071h.107v10.543h-.107a.536.536,0,0,0,0,1.071h.107v6.365h-.107a.536.536,0,1,0,0,1.071h19.286a.536.536,0,1,0,0-1.071h-.107v-6.365h.107a.536.536,0,1,0,0-1.071h-.107V366.948Zm-16.875-9.877H281.9v1.368h-1.954Zm15.7,27.857H278.714v-6.365h16.929Zm0-7.437H278.714V366.948h16.929Zm0-11.615H278.714v-6.366h16.929Z" fill="#84e9ff"/>
    <path id="Path_52" data-name="Path 52" d="M296,393.1a5.237,5.237,0,0,0,5.075-5.375c0-2.361-2.906-6.261-4.157-7.83a1.173,1.173,0,0,0-.918-.444h0a1.167,1.167,0,0,0-.917.446c-1.25,1.566-4.157,5.464-4.157,7.828A5.238,5.238,0,0,0,296,393.1Zm0-11.124c1.617,2.151,3.075,4.579,3.075,5.749a3.089,3.089,0,1,1-6.151,0C292.924,386.556,294.383,384.128,296,381.978Z" transform="translate(-8.821 -14.398)" fill="#84e9ff"/>
  </g>
</svg>
