<svg xmlns="http://www.w3.org/2000/svg" width="40" height="40" viewBox="0 0 40 40">
  <g id="info_icon" data-name="info icon" transform="translate(-37.752 -934.645)">
    <path id="Path_3222" data-name="Path 3222" d="M57.751,974.645a20,20,0,1,1,20-20A20.022,20.022,0,0,1,57.751,974.645Zm0-38.914a18.915,18.915,0,1,0,18.915,18.915A18.936,18.936,0,0,0,57.751,935.731Z" fill="#fff"/>
    <g id="Group_2759" data-name="Group 2759" transform="translate(53.408 943.93)">
      <path id="Path_3223" data-name="Path 3223" d="M49.2,943.731a2.12,2.12,0,1,1,2.121-2.121A2.123,2.123,0,0,1,49.2,943.731Zm0-3.154a1.034,1.034,0,1,0,1.035,1.033A1.034,1.034,0,0,0,49.2,940.577Z" transform="translate(-44.86 -939.491)" fill="#fff"/>
      <path id="Path_3224" data-name="Path 3224" d="M49.806,956.527a.543.543,0,0,1-.542-.542v-11.86h-2.3a.543.543,0,0,1,0-1.086h2.838a.544.544,0,0,1,.544.544v12.4A.543.543,0,0,1,49.806,956.527Z" transform="translate(-45.462 -936.242)" fill="#fff"/>
      <path id="Path_3225" data-name="Path 3225" d="M54.068,950.6h-7.6a.543.543,0,1,1,0-1.086h7.6a.543.543,0,1,1,0,1.086Z" transform="translate(-45.923 -930.313)" fill="#fff"/>
    </g>
  </g>
</svg>
