<svg id="insights_btn" data-name="insights btn" xmlns="http://www.w3.org/2000/svg" width="80" height="75" viewBox="0 0 80 75">
  <path id="bar" d="M0,0H80V75H0Z" transform="translate(0)" fill="#3e3e3d" opacity="0"/>
  <text id="Insights" transform="translate(0 48)" fill="#fff" font-size="12" font-family="TitilliumWeb-Regular, Titillium Web"><tspan x="20.014" y="14">Insights</tspan></text>
  <g id="Group_2777" data-name="Group 2777" transform="translate(32 17)">
    <path id="Path_3252" data-name="Path 3252" d="M416.58,753.818h-2.607v-2.305a.345.345,0,0,0-.691,0v2.305h-2.306v-2.305a.346.346,0,0,0-.692,0v2.305h-2.414l-.006-.006v-2.3a.346.346,0,0,0-.692,0v2.305h-2.536v-2.305a.346.346,0,0,0-.692,0v2.305h-2.261a.853.853,0,0,0-.852.852v21.121a.852.852,0,0,0,.852.852h14.9a.851.851,0,0,0,.852-.852V754.67A.852.852,0,0,0,416.58,753.818Zm.161,22.134H401.524V754.51h2.421v2.421a.346.346,0,0,0,.692,0V754.51h2.536v2.421a.346.346,0,0,0,.692,0V754.51h2.42v2.305a.346.346,0,1,0,.692,0V754.51h2.306v2.536a.345.345,0,1,0,.691,0V754.51h2.768Z" transform="translate(-400.832 -751.168)" fill="#fff"/>
    <g id="Group_2776" data-name="Group 2776" transform="translate(2.378 10.625)">
      <path id="Path_3253" data-name="Path 3253" d="M409.434,764.89h-2.8a.171.171,0,0,0-.171.171v5.8a.171.171,0,0,0,.171.171h2.8a.171.171,0,0,0,.171-.171v-5.8A.171.171,0,0,0,409.434,764.89Zm-.171,5.8H406.8v-5.46h2.463Z" transform="translate(-401.971 -758.77)" fill="#fff"/>
      <path id="Path_3254" data-name="Path 3254" d="M413.231,762.375h-2.8a.17.17,0,0,0-.171.171v8.87a.17.17,0,0,0,.171.171h2.8a.17.17,0,0,0,.171-.171v-8.87A.17.17,0,0,0,413.231,762.375Zm-.171,8.87H410.6v-8.529h2.461Z" transform="translate(-401.134 -759.324)" fill="#fff"/>
      <path id="Path_3255" data-name="Path 3255" d="M405.756,762.375h-2.8a.171.171,0,0,0-.171.171v8.87a.171.171,0,0,0,.171.171h2.8a.171.171,0,0,0,.171-.171v-8.87A.171.171,0,0,0,405.756,762.375Zm-.171,8.87h-2.463v-8.529h2.463Z" transform="translate(-402.781 -759.324)" fill="#fff"/>
      <path id="Path_3256" data-name="Path 3256" d="M408.454,764.578a.173.173,0,0,0,.118.048h.017a.171.171,0,0,0,.123-.072l2.835-4.072.2,1.108a.171.171,0,0,0,.167.142l.03,0a.17.17,0,0,0,.138-.2l-.271-1.513a.169.169,0,0,0-.2-.138l-1.507.27a.17.17,0,0,0,.06.336l1.1-.2-2.719,3.906-4.358-4.174a.173.173,0,0,0-.242,0,.17.17,0,0,0,0,.242Z" transform="translate(-402.534 -759.875)" fill="#fff"/>
    </g>
  </g>
</svg>
