<svg xmlns="http://www.w3.org/2000/svg" width="26.103" height="29.986" viewBox="0 0 26.103 29.986">
  <g id="Group_3689" data-name="Group 3689" transform="translate(-295.797 -119.302)">
    <path id="Path_3368" data-name="Path 3368" d="M320.591,129.436a.362.362,0,0,1-.274-.131,1.686,1.686,0,0,0-2.564,0,.353.353,0,0,1-.549,0,.494.494,0,0,1,0-.631,2.357,2.357,0,0,1,3.662,0,.494.494,0,0,1,0,.631A.364.364,0,0,1,320.591,129.436Z" transform="translate(-10.271 -3.443)" fill="#fff"/>
    <path id="Path_3369" data-name="Path 3369" d="M314.47,125.926a.362.362,0,0,1-.274-.131.494.494,0,0,1,0-.631,4.369,4.369,0,0,1,6.776,0,.494.494,0,0,1,0,.631.354.354,0,0,1-.549,0,3.662,3.662,0,0,0-5.678,0A.362.362,0,0,1,314.47,125.926Z" transform="translate(-8.82 -1.722)" fill="#fff"/>
    <path id="Path_3370" data-name="Path 3370" d="M320.8,122.414a.363.363,0,0,1-.274-.13,5.668,5.668,0,0,0-8.791,0,.354.354,0,0,1-.549,0,.5.5,0,0,1,0-.631,6.375,6.375,0,0,1,9.888,0,.5.5,0,0,1,0,.631A.362.362,0,0,1,320.8,122.414Z" transform="translate(-7.369)" fill="#fff"/>
    <path id="Path_3371" data-name="Path 3371" d="M320.488,132.953a.365.365,0,0,1-.275-.131.5.5,0,0,1,0-.631.365.365,0,0,1,.554-.006.5.5,0,0,1,0,.637A.382.382,0,0,1,320.488,132.953Z" transform="translate(-11.722 -5.168)" fill="#fff"/>
    <path id="Path_3372" data-name="Path 3372" d="M320.914,165.245H297.248a.42.42,0,0,1-.388-.446v-2.531a.42.42,0,0,1,.388-.446h24.766a.42.42,0,0,1,.388.446v1.265A1.614,1.614,0,0,1,320.914,165.245Zm-23.277-.892h23.277a.772.772,0,0,0,.712-.819v-.819H297.636Z" transform="translate(-0.513 -17.223)" fill="#fff"/>
    <path id="Path_3373" data-name="Path 3373" d="M337.4,154.964h-8.255a.42.42,0,0,1-.388-.446V143.132a.421.421,0,0,1,.388-.446h2.2a.421.421,0,0,1,.388.446v4.614H337.4a.42.42,0,0,1,.388.446v6.326A.42.42,0,0,1,337.4,154.964Zm-7.867-.892h7.479v-5.434h-5.665a.42.42,0,0,1-.388-.446v-4.614h-1.425Z" transform="translate(-15.897 -9.472)" fill="#fff"/>
    <path id="Path_3374" data-name="Path 3374" d="M339.46,148.638H333.4a.42.42,0,0,1-.388-.446v-5.06a.421.421,0,0,1,.388-.446h2.879a2.638,2.638,0,0,1,2.422,1.93l1.088,3.33a.494.494,0,0,1,.064.246A.42.42,0,0,1,339.46,148.638Zm-5.676-.892h5.105l-.919-2.817a1.847,1.847,0,0,0-1.695-1.351h-2.491Z" transform="translate(-17.948 -9.472)" fill="#fff"/>
    <path id="Path_3375" data-name="Path 3375" d="M332.694,164.472a1.667,1.667,0,1,1,1.651,1.9A1.787,1.787,0,0,1,332.694,164.472Z" transform="translate(-17.797 -17.528)" fill="#fff"/>
    <path id="Path_3376" data-name="Path 3376" d="M333.984,166.512a2.367,2.367,0,1,1,2.039-2.343A2.21,2.21,0,0,1,333.984,166.512Zm0-3.8a1.465,1.465,0,1,0,1.263,1.452A1.369,1.369,0,0,0,333.984,162.716Z" transform="translate(-17.435 -17.224)" fill="#fff"/>
    <path id="Path_3377" data-name="Path 3377" d="M302.927,164.472a1.667,1.667,0,1,1,1.651,1.9A1.787,1.787,0,0,1,302.927,164.472Z" transform="translate(-3.439 -17.528)" fill="#fff"/>
    <path id="Path_3378" data-name="Path 3378" d="M304.216,166.512a2.366,2.366,0,1,1,2.04-2.343A2.21,2.21,0,0,1,304.216,166.512Zm0-3.8a1.465,1.465,0,1,0,1.263,1.452A1.369,1.369,0,0,0,304.216,162.716Z" transform="translate(-3.077 -17.224)" fill="#fff"/>
    <path id="Path_3379" data-name="Path 3379" d="M343.039,160.993h-2.2a.42.42,0,0,1-.388-.446v-2.531a.42.42,0,0,1,.388-.446h2.2a.42.42,0,0,1,.388.446v2.531A.42.42,0,0,1,343.039,160.993Zm-1.813-.892h1.425v-1.638h-1.425Z" transform="translate(-21.538 -15.501)" fill="#fff"/>
    <path id="Path_3380" data-name="Path 3380" d="M335.01,156.336h-.55a.451.451,0,0,1,0-.892h.55a.451.451,0,0,1,0,.892Z" transform="translate(-18.461 -14.64)" fill="#fff"/>
    <path id="Path_3381" data-name="Path 3381" d="M313.246,153.242H296.185a.42.42,0,0,1-.388-.446V138.88a.42.42,0,0,1,.388-.446h17.061a.42.42,0,0,1,.388.446V152.8A.42.42,0,0,1,313.246,153.242Zm-16.673-.892h16.285V139.326H296.573Z" transform="translate(0 -7.75)" fill="#fff"/>
    <path id="Path_3382" data-name="Path 3382" d="M331.43,152.083H329.3a.451.451,0,0,1,0-.892h2.132a.451.451,0,0,1,0,.892Z" transform="translate(-15.971 -12.917)" fill="#fff"/>
    <path id="Path_3383" data-name="Path 3383" d="M319.58,158.462h-4.141a.451.451,0,0,1,0-.892h4.141a.451.451,0,0,1,0,.892Z" transform="translate(-9.286 -15.501)" fill="#fff"/>
    <path id="Path_3384" data-name="Path 3384" d="M311.956,158.462h-.518a.451.451,0,0,1,0-.892h.518a.451.451,0,0,1,0,.892Z" transform="translate(-7.357 -15.501)" fill="#fff"/>
    <path id="Path_3385" data-name="Path 3385" d="M304.579,158.462h-4.141a.451.451,0,0,1,0-.892h4.141a.451.451,0,0,1,0,.892Z" transform="translate(-2.051 -15.501)" fill="#fff"/>
    <path id="Path_3386" data-name="Path 3386" d="M319.58,143.578h-4.141a.451.451,0,0,1,0-.892h4.141a.451.451,0,0,1,0,.892Z" transform="translate(-9.286 -9.472)" fill="#fff"/>
    <path id="Path_3387" data-name="Path 3387" d="M311.956,143.578h-.518a.451.451,0,0,1,0-.892h.518a.451.451,0,0,1,0,.892Z" transform="translate(-7.357 -9.472)" fill="#fff"/>
    <path id="Path_3388" data-name="Path 3388" d="M304.579,143.578h-4.141a.451.451,0,0,1,0-.892h4.141a.451.451,0,0,1,0,.892Z" transform="translate(-2.051 -9.472)" fill="#fff"/>
  </g>
</svg>
