<svg xmlns="http://www.w3.org/2000/svg" width="32" height="32" viewBox="0 0 32 32"><path fill="#000" d="M 16 0 C 7.1694487 0 -2.3129646e-018 7.1694003 0 16 C 0 24.8305 7.1694487 32 16 32 C 24.830541 32 32 24.8305 32 16 C 32 7.1694003 24.830541 0 16 0 z M 16 1 C 24.282144 1 30.96875 7.7178003 30.96875 16 C 30.96875 24.2821 24.282144 31 16 31 C 7.7178454 31 1 24.2821 1 16 C 1 7.7178003 7.7178454 1 16 1 z M 12.5 10 C 12.22387 10 12.00003 10.2239 12 10.5 L 12 13 L 13 13 L 22 13 L 22 19 L 21 19 L 21 20 L 22.5 20 C 22.77613 20 22.99997 19.7761 23 19.5 L 23 13 L 23 12 L 23 10.5 C 22.99997 10.2239 22.77613 10 22.5 10 L 12.5 10 z M 13 11 L 22 11 L 22 12 L 13 12 L 13 11 z M 9.40625 14 A 0.50004998 0.50004998 0 0 0 9 14.5 L 9 23.5 A 0.50004998 0.50004998 0 0 0 9.5 24 L 19.5 24 A 0.50004998 0.50004998 0 0 0 20 23.5 L 20 14.5 A 0.50004998 0.50004998 0 0 0 19.5 14 L 9.5 14 A 0.50004998 0.50004998 0 0 0 9.40625 14 z M 10 15 L 19 15 L 19 16 L 10 16 L 10 15 z M 10 17 L 19 17 L 19 23 L 10 23 L 10 17 z " color="#000" font-family="Sans" font-weight="400" overflow="visible" style="text-indent:0;text-align:start;line-height:normal;text-transform:none;block-progression:tb;marker:none;-inkscape-font-specification:Sans"/></svg>