<svg xmlns="http://www.w3.org/2000/svg" width="46" height="46" viewBox="0 0 46 46">
  <g id="parking-space" transform="translate(-11956.5 -7409.5)">
    <path id="Path_3605" data-name="Path 3605" d="M23,0A23,23,0,1,1,0,23,23,23,0,0,1,23,0Z" transform="translate(11956.5 7409.5)" fill="#67cbf0"/>
    <path id="Path_3528" data-name="Path 3528" d="M55.367,214.306H53.851a.809.809,0,0,1-.544-.205l-4.748-4.3a3.119,3.119,0,0,0-2.1-.8H37.436a3.054,3.054,0,0,0-2.74,1.639l-1.226,3.3a.754.754,0,0,1-.654.365h-3.3A1.493,1.493,0,0,0,28,215.775V220.9a1.493,1.493,0,0,0,1.511,1.47h1.3a3.934,3.934,0,0,0,7.736,0H48.82a3.934,3.934,0,0,0,7.736,0h.855a1.533,1.533,0,0,0,1.553-1.51v-3.087A3.537,3.537,0,0,0,55.367,214.306Zm2.365,2.761h-.377a1.4,1.4,0,0,1-1.435-1.35v-.243A2.441,2.441,0,0,1,57.732,217.067Zm-9.914-6.446,4.069,3.684H46.878v-1.23a1.54,1.54,0,0,0-3.079,0v1.23h-.646v-4.2H46.46A2.017,2.017,0,0,1,47.818,210.621Zm-2.045,3.684H44.9v-1.23a.436.436,0,0,1,.868,0Zm-10.079-3.188a1.979,1.979,0,0,1,1.742-1.012h4.611v4.2H38.688v-1.23a1.54,1.54,0,0,0-3.08,0v1.23h-1.1Zm-1.018,6.928c-.106,0-.21.008-.313.015v-2.65h7.685v5.853h-3.5A3.874,3.874,0,0,0,34.675,218.045Zm2.907-3.74h-.868v-1.23a.436.436,0,0,1,.868,0Zm-8.071,1.106h.917v.165a1.694,1.694,0,0,1-1.322,1.613v-1.414A.387.387,0,0,1,29.511,215.411Zm-.405,5.488v-2.586a2.811,2.811,0,0,0,2.428-2.738v-.165h1.722v2.895a3.808,3.808,0,0,0-2.449,2.958h-1.3A.387.387,0,0,1,29.106,220.9Zm5.569,3.582a2.669,2.669,0,1,1,2.809-2.665A2.743,2.743,0,0,1,34.675,224.482Zm18.012,0a2.669,2.669,0,1,1,2.809-2.665A2.743,2.743,0,0,1,52.687,224.482Zm4.724-3.218h-.855a3.933,3.933,0,0,0-7.736,0H43.153v-5.853H54.814v.306a2.5,2.5,0,0,0,2.541,2.456h.5v2.687A.427.427,0,0,1,57.411,221.264Z" transform="translate(11935.882 7215.342)" fill="#fff"/>
    <path id="Path_3529" data-name="Path 3529" d="M38.452,228.668a1.943,1.943,0,1,0,2,1.942A1.976,1.976,0,0,0,38.452,228.668Zm0,2.777a.838.838,0,1,1,.9-.835A.87.87,0,0,1,38.452,231.445Z" transform="translate(11932.104 7206.549)" fill="#fff"/>
    <path id="Path_3530" data-name="Path 3530" d="M71.029,228.668a1.943,1.943,0,1,0,2,1.942A1.976,1.976,0,0,0,71.029,228.668Zm0,2.777a.838.838,0,1,1,.9-.835A.87.87,0,0,1,71.029,231.445Z" transform="translate(11917.54 7206.549)" fill="#fff"/>
    <path id="Path_3531" data-name="Path 3531" d="M58.181,222.078H56.77a.553.553,0,1,0,0,1.106h1.411a.553.553,0,1,0,0-1.106Z" transform="translate(11923.267 7209.496)" fill="#fff"/>
    <path id="Path_3532" data-name="Path 3532" d="M42.448,222.078H41.037a.553.553,0,1,0,0,1.106h1.411a.553.553,0,1,0,0-1.106Z" transform="translate(11930.301 7209.496)" fill="#fff"/>
  </g>
</svg>
