<svg data-testid="reports" xmlns="http://www.w3.org/2000/svg" width="25" height="25" viewBox="0 0 25 25">
  <g id="reports-act" transform="translate(-131 -145)">
    <g id="reports" transform="translate(-1211.929 -1620.408)">
      <path
        id="Path_3343"
        data-name="Path 3343"
        d="M1395.162,1862.268l-3.11-3.11a4.254,4.254,0,0,0,.9-3.9.3.3,0,0,0-.57.154,3.67,3.67,0,1,1-.6-1.236l-.635.4a.65.65,0,0,0-.965.71l-1.927,1.633a.648.648,0,0,0-.681.087l-1.394-.587a.3.3,0,1,0-.229.544l1.384.583a.651.651,0,1,0,1.289-.165l1.94-1.644a.652.652,0,0,0,.9-.6c0-.021,0-.042,0-.062l2.531-1.606a.651.651,0,1,0-.32-.56c0,.021,0,.042,0,.062l-1.4.886a4.255,4.255,0,0,0-7.685,2.236l-2.091,1.228a.651.651,0,1,0,.3.548c0-.013,0-.026,0-.039l1.8-1.058a4.252,4.252,0,0,0,7.028,2.8l3.11,3.11a.3.3,0,0,0,.418-.418Z"
        transform="translate(-31.355 -74.764)"
        fill="#fff"
      />
      <path
        id="Path_3344"
        data-name="Path 3344"
        d="M1360.72,1786.6a.3.3,0,0,0-.3.3v.5h-11.433v-.76s0,0,0-.005,0,0,0,0V1771.59h11.433v5.885a.3.3,0,1,0,.59,0v-6.18a.3.3,0,0,0-.3-.3h-1.589v-.945a.3.3,0,0,0-.3-.3H1347.26a.3.3,0,0,0-.3.3v16.576a.3.3,0,0,0,.3.3h1.141v.765a.3.3,0,0,0,.3.3h12.023a.3.3,0,0,0,.3-.3v-.8A.3.3,0,0,0,1360.72,1786.6Zm-13.165-.261v-15.985h10.985v.65H1348.7a.3.3,0,0,0-.3.3v15.04Z"
        fill="#fff"
      />
      <path
        id="Path_3345"
        data-name="Path 3345"
        d="M1396,1808.515a.3.3,0,0,0-.3-.3h-7.638a.3.3,0,1,0,0,.591h7.638A.3.3,0,0,0,1396,1808.515Z"
        transform="translate(-37.051 -34.917)"
        fill="#fff"
      />
      <path
        id="Path_3346"
        data-name="Path 3346"
        d="M1392.068,1823.9a.3.3,0,0,0-.3-.3h-3.7a.3.3,0,1,0,0,.59h3.7A.3.3,0,0,0,1392.068,1823.9Z"
        transform="translate(-37.051 -48.884)"
        fill="#fff"
      />
      <path
        id="Path_3347"
        data-name="Path 3347"
        d="M1388.071,1839.844a.3.3,0,1,0,0,.591h2.008a.3.3,0,1,0,0-.591Z"
        transform="translate(-37.051 -63.628)"
        fill="#fff"
      />
    </g>
  </g>
</svg>