<svg xmlns="http://www.w3.org/2000/svg" width="44" height="44" viewBox="0 0 44 44">
  <g id="Group_3515" data-name="Group 3515" transform="translate(-11846 -7579)">
    <circle id="Ellipse_48" data-name="Ellipse 48" cx="22" cy="22" r="22" transform="translate(11846 7579)" fill="#cbb735"/>
    <path id="Path_3597" data-name="Path 3597" d="M40.752,156.969a10.782,10.782,0,0,1-8.433-4.04.518.518,0,1,1,.806-.649,9.786,9.786,0,1,0,.8-13.141,10.009,10.009,0,0,0-.8.877.517.517,0,0,1-.806-.649,10.821,10.821,0,1,1,8.433,17.6Z" transform="translate(11832.759 7454.265)" fill="#fff"/>
    <path id="Path_3598" data-name="Path 3598" d="M41.755,155.318a8.316,8.316,0,0,1-6.507-3.116.518.518,0,1,1,.806-.649,7.315,7.315,0,1,0,.6-9.822,7.459,7.459,0,0,0-.6.655.517.517,0,0,1-.806-.649,8.357,8.357,0,0,1,6.507-3.118,8.349,8.349,0,1,1,0,16.7Z" transform="translate(11832.028 7453.444)" fill="#fff"/>
    <path id="Path_3599" data-name="Path 3599" d="M43.418,143.731a.518.518,0,0,1-.517-.518v-.906a.518.518,0,1,1,1.035,0v.906A.518.518,0,0,1,43.418,143.731Z" transform="translate(11830.093 7452.654)" fill="#fff"/>
    <path id="Path_3600" data-name="Path 3600" d="M42.62,153a2.847,2.847,0,0,1-2.921-2.76.518.518,0,0,1,1.035,0,1.894,1.894,0,1,0,1.886-1.725,2.764,2.764,0,1,1,2.921-2.76.517.517,0,0,1-1.035,0,1.894,1.894,0,1,0-1.887,1.725,2.764,2.764,0,1,1,0,5.519Z" transform="translate(11830.891 7452.353)" fill="#fff"/>
    <path id="Path_3601" data-name="Path 3601" d="M43.418,154.03a.518.518,0,0,1-.517-.517v-10a.518.518,0,0,1,1.035,0v10A.518.518,0,0,1,43.418,154.03Z" transform="translate(11830.093 7452.353)" fill="#fff"/>
    <path id="Path_3602" data-name="Path 3602" d="M26.67,150.087H14.732a.517.517,0,1,1,0-1.035H26.67a.517.517,0,1,1,0,1.035Z" transform="translate(11837.243 7450.844)" fill="#fff"/>
    <path id="Path_3603" data-name="Path 3603" d="M29.361,145.39H19.238a.518.518,0,0,1,0-1.035H29.361a.518.518,0,0,1,0,1.035Z" transform="translate(11836.119 7452.015)" fill="#fff"/>
    <path id="Path_3604" data-name="Path 3604" d="M29.361,154.783H19.238a.518.518,0,0,1,0-1.035H29.361a.518.518,0,0,1,0,1.035Z" transform="translate(11836.119 7449.673)" fill="#fff"/>
  </g>
</svg>
