<svg xmlns="http://www.w3.org/2000/svg" width="44.097" height="44.097" viewBox="0 0 44.097 44.097">
  <g id="Group_208" data-name="Group 208" opacity="0.5">
    <rect id="Rectangle_27" data-name="Rectangle 27" width="44.097" height="44.097" rx="3" transform="translate(0 0)" fill="#3e3e3e" opacity="0.99"/>
    <g id="Group_67" data-name="Group 67" transform="translate(10.316 11.024)">
      <rect id="Rectangle_28" data-name="Rectangle 28" width="23.465" height="17.895" rx="1" transform="translate(0 4.153)" fill="none" stroke="#fff" stroke-linecap="round" stroke-linejoin="round" stroke-width="0.7"/>
      <path id="Path_53" data-name="Path 53" d="M330,404.917v-.959a.974.974,0,0,1,.989-.959h5.937a.974.974,0,0,1,.99.959v.959" transform="translate(-322.579 -403)" fill="none" stroke="#fff" stroke-linecap="round" stroke-linejoin="round" stroke-width="0.7"/>
      <path id="Path_54" data-name="Path 54" d="M345.2,427.9a49.414,49.414,0,0,0,7.623-1.9" transform="translate(-330.069 -414.976)" fill="none" stroke="#fff" stroke-linecap="round" stroke-linejoin="round" stroke-width="0.7"/>
      <rect id="Rectangle_29" data-name="Rectangle 29" width="6.704" height="4.881" transform="translate(8.38 10.66)" fill="none" stroke="#fff" stroke-linecap="round" stroke-linejoin="round" stroke-width="0.7"/>
      <path id="Path_55" data-name="Path 55" d="M322.916,427.917A56.869,56.869,0,0,1,315,426" transform="translate(-315 -414.976)" fill="none" stroke="#fff" stroke-linecap="round" stroke-linejoin="round" stroke-width="0.7"/>
      <line id="Line_10" data-name="Line 10" y1="1.627" transform="translate(11.732 13.914)" fill="none" stroke="#fff" stroke-linecap="round" stroke-linejoin="round" stroke-width="0.7"/>
    </g>
  </g>
</svg>
