<svg xmlns="http://www.w3.org/2000/svg" width="44.097" height="44.097" viewBox="0 0 44.097 44.097">
  <g id="face-icon-de" transform="translate(-809 -95)">
    <rect id="Rectangle_27" data-name="Rectangle 27" width="44.097" height="44.097" rx="3" transform="translate(809 95)" fill="#3e3e3e" opacity="0.99"/>
    <g id="Group_55" data-name="Group 55" transform="translate(820.024 106.024)">
      <path id="Path_37" data-name="Path 37" d="M125.25,223.616a.348.348,0,0,0,.348.348H146.95a.348.348,0,0,0,.348-.348v-7.891a.348.348,0,0,0-.348-.348h-.58v-.58a.348.348,0,0,0-.7,0v.58h-1.438A4.62,4.62,0,0,0,141.929,214l-3.713-.928a.344.344,0,0,0-.085-.011h-.58v-.927a5.715,5.715,0,0,0,2.321-4.759c0-3.007-2.03-5.454-4.526-5.454s-4.526,2.447-4.526,5.454a5.715,5.715,0,0,0,2.321,4.759v.927h-.58a.342.342,0,0,0-.084.011l-3.713.928a4.641,4.641,0,0,0-3.513,4.515Zm.7-5.106a3.946,3.946,0,0,1,2.986-3.84l3.672-.918h.578a2.189,2.189,0,0,0,4.328,0h.578l3.672.918a3.93,3.93,0,0,1,1.455.706H138.6a.348.348,0,0,0-.348.348v7.543H129.66v-3.829a.348.348,0,0,0-.7,0v3.829h-3.017Zm9.4-15.9c2.112,0,3.829,2.135,3.829,4.758a5.169,5.169,0,0,1-1.625,3.884,3.831,3.831,0,0,1-.348.274,3.647,3.647,0,0,1-.348.214,3.143,3.143,0,0,1-3.017,0,3.651,3.651,0,0,1-.348-.214,3.831,3.831,0,0,1-.348-.274,5.169,5.169,0,0,1-1.625-3.884C131.516,204.747,133.234,202.612,135.346,202.612Zm-1.509,9.894a3.737,3.737,0,0,0,3.017,0v.829c0,.024-.006.046-.007.069a1.589,1.589,0,0,1-.053.348,1.484,1.484,0,0,1-2.9,0,1.587,1.587,0,0,1-.053-.348c0-.023-.007-.046-.007-.069v-.829Zm12.765,3.567v5.338h-1.16v-.279a1.716,1.716,0,0,0-.348-1.141,1.139,1.139,0,0,0-.348-.271,1.571,1.571,0,0,0-.735-.167h-.166a1.7,1.7,0,0,0,.2-.812,1.294,1.294,0,1,0-2.553,0,1.76,1.76,0,0,0,.05.4,1.645,1.645,0,0,0,.154.415h-.195a1.809,1.809,0,0,0-.473.06c-.491.133-.928.525-.928,1.505v.292h-1.16v-5.338H146.6Zm-1.857,7.195h-5.8v-1.16H146.6v1.16h-1.857Zm-2.553-4.526c0-.44.266-.812.58-.812s.58.372.58.812-.266.812-.58.812S142.192,219.183,142.192,218.742Zm.58,1.509h1.238c.453,0,.735.148.735.882v.279H140.8v-.292a.9.9,0,0,1,.232-.739.726.726,0,0,1,.473-.13h1.267Z" transform="translate(-125.25 -201.916)" fill="#fff"/>
      <path id="Path_38" data-name="Path 38" d="M157.25,202.264a.348.348,0,0,0,.348.348h1.509v1.509a.348.348,0,0,0,.7,0v-1.857a.348.348,0,0,0-.348-.348H157.6A.348.348,0,0,0,157.25,202.264Z" transform="translate(-142.396 -201.916)" fill="#fff"/>
      <path id="Path_39" data-name="Path 39" d="M157.6,221.469h1.857a.348.348,0,0,0,.348-.348v-1.857a.348.348,0,0,0-.7,0v1.509H157.6a.348.348,0,0,0,0,.7Z" transform="translate(-142.396 -211.025)" fill="#fff"/>
      <path id="Path_40" data-name="Path 40" d="M131.6,218.916a.348.348,0,0,0-.348.348v1.857a.348.348,0,0,0,.348.348h1.857a.348.348,0,1,0,0-.7h-1.509v-1.509A.348.348,0,0,0,131.6,218.916Z" transform="translate(-128.465 -211.025)" fill="#fff"/>
      <path id="Path_41" data-name="Path 41" d="M133.455,201.916H131.6a.348.348,0,0,0-.348.348v1.857a.348.348,0,0,0,.7,0v-1.509h1.509a.348.348,0,1,0,0-.7Z" transform="translate(-128.465 -201.916)" fill="#fff"/>
      <path id="Path_42" data-name="Path 42" d="M169.946,213.264a.348.348,0,0,0-.7,0v.464a.348.348,0,0,0,.7,0Z" transform="translate(-148.826 -207.81)" fill="#fff"/>
      <path id="Path_43" data-name="Path 43" d="M169.6,224.916a.348.348,0,0,0-.348.348v.464a.348.348,0,0,0,.7,0v-.464A.348.348,0,0,0,169.6,224.916Z" transform="translate(-148.826 -214.24)" fill="#fff"/>
      <path id="Path_44" data-name="Path 44" d="M169.946,217.264a.348.348,0,0,0-.7,0v2.321a.348.348,0,0,0,.7,0Z" transform="translate(-148.826 -209.953)" fill="#fff"/>
      <path id="Path_45" data-name="Path 45" d="M161.749,212.541h1.1a.348.348,0,1,0,0-.7h-1.1a1.277,1.277,0,1,0,0,.7Zm-.642-.348a.606.606,0,0,1-.58.58.58.58,0,0,1,0-1.16.606.606,0,0,1,.58.58Z" transform="translate(-143.468 -206.738)" fill="#fff"/>
    </g>
  </g>
</svg>
