<svg xmlns="http://www.w3.org/2000/svg" width="25.77" height="25.77" viewBox="0 0 25.77 25.77">
  <g id="Group_3686" data-name="Group 3686" transform="translate(-2475.359 -3320.544)">
    <path id="Path_3349" data-name="Path 3349" d="M2475.894,3328.23a.535.535,0,0,0,.535-.535v-3.289a2.8,2.8,0,0,1,2.792-2.792h3.125a.535.535,0,0,0,0-1.07h-3.125a3.866,3.866,0,0,0-3.862,3.862v3.289A.535.535,0,0,0,2475.894,3328.23Z" fill="#fff"/>
    <path id="Path_3350" data-name="Path 3350" d="M2617.56,3320.544h-3.125a.535.535,0,0,0,0,1.07h3.125a2.8,2.8,0,0,1,2.792,2.792v3.289a.535.535,0,1,0,1.07,0v-3.289A3.866,3.866,0,0,0,2617.56,3320.544Z" transform="translate(-120.293)" fill="#fff"/>
    <path id="Path_3351" data-name="Path 3351" d="M2482.345,3466.624h-3.125a2.8,2.8,0,0,1-2.792-2.792v-2.959a.535.535,0,0,0-1.069,0v2.959a3.866,3.866,0,0,0,3.862,3.862h3.125a.535.535,0,0,0,0-1.07Z" transform="translate(0 -121.38)" fill="#fff"/>
    <path id="Path_3352" data-name="Path 3352" d="M2620.887,3460.338a.535.535,0,0,0-.535.535v2.959a2.8,2.8,0,0,1-2.792,2.792h-3.125a.535.535,0,0,0,0,1.07h3.125a3.866,3.866,0,0,0,3.862-3.862v-2.959A.535.535,0,0,0,2620.887,3460.338Z" transform="translate(-120.293 -121.38)" fill="#fff"/>
    <path id="Path_3353" data-name="Path 3353" d="M2623.019,3399.1a.535.535,0,0,0,.216.725.529.529,0,0,0,.254.064.535.535,0,0,0,.471-.281,8.608,8.608,0,0,0,.391-7.328.535.535,0,0,0-.99.405,7.514,7.514,0,0,1-.342,6.415Z" transform="translate(-128.155 -61.998)" fill="#fff"/>
    <path id="Path_3354" data-name="Path 3354" d="M2526.336,3357.167a.535.535,0,0,0,.756.005,7.528,7.528,0,0,1,8.715-1.338,7.59,7.59,0,0,1,2.607,2.213.535.535,0,1,0,.858-.637,8.576,8.576,0,0,0-6.9-3.472,8.54,8.54,0,0,0-6.031,2.473A.535.535,0,0,0,2526.336,3357.167Z" transform="translate(-44.129 -28.995)" fill="#fff"/>
    <path id="Path_3355" data-name="Path 3355" d="M2510.13,3381.477a.535.535,0,0,0-.741.151,8.612,8.612,0,0,0-.927,7.615.535.535,0,0,0,1.008-.359,7.536,7.536,0,0,1,.811-6.666A.535.535,0,0,0,2510.13,3381.477Z" transform="translate(-28.314 -52.83)" fill="#fff"/>
    <path id="Path_3356" data-name="Path 3356" d="M2519.744,3420.806a.535.535,0,0,0,.71-.26c.337-.726.6-1.362.789-1.891a3.071,3.071,0,0,0,.093-1.755,5.369,5.369,0,0,1-.153-1.276.535.535,0,1,0-1.069,0,6.439,6.439,0,0,0,.184,1.531,2,2,0,0,1-.063,1.144c-.175.5-.427,1.1-.75,1.8A.535.535,0,0,0,2519.744,3420.806Z" transform="translate(-38.27 -82.092)" fill="#fff"/>
    <path id="Path_3357" data-name="Path 3357" d="M2530.97,3374.455a.535.535,0,1,0-.379-1,6.482,6.482,0,0,0-3.838,4.029.535.535,0,0,0,.344.674.529.529,0,0,0,.165.026.535.535,0,0,0,.509-.37A5.406,5.406,0,0,1,2530.97,3374.455Z" transform="translate(-44.602 -45.911)" fill="#fff"/>
    <path id="Path_3358" data-name="Path 3358" d="M2575.516,3378.9a.543.543,0,0,0,.13.016.535.535,0,0,0,.518-.405,6.431,6.431,0,0,0,.191-1.557,6.4,6.4,0,0,0-6.352-6.4h0a.535.535,0,0,0,0,1.07,5.336,5.336,0,0,1,5.131,6.628A.535.535,0,0,0,2575.516,3378.9Z" transform="translate(-81.711 -43.424)" fill="#fff"/>
    <path id="Path_3359" data-name="Path 3359" d="M2606.737,3439.515a.535.535,0,0,0-.61.447c-.126.82-.322,2.048-.537,3.236a.535.535,0,1,0,1.052.191c.218-1.2.415-2.437.542-3.265A.535.535,0,0,0,2606.737,3439.515Z" transform="translate(-113.069 -103.295)" fill="#fff"/>
    <path id="Path_3360" data-name="Path 3360" d="M2567.443,3445.52a.535.535,0,0,0-.644.4,18.372,18.372,0,0,1-1.321,3.732.535.535,0,1,0,.963.464,19.457,19.457,0,0,0,1.4-3.95A.535.535,0,0,0,2567.443,3445.52Z" transform="translate(-78.203 -108.502)" fill="#fff"/>
    <path id="Path_3361" data-name="Path 3361" d="M2548.229,3404.634a.747.747,0,1,1,1.494,0v.006a18.282,18.282,0,0,1-.159,2.4.535.535,0,1,0,1.06.141,19.33,19.33,0,0,0,.169-2.541v-.006a1.817,1.817,0,0,0-3.634,0v.006a17.422,17.422,0,0,1-1.91,7.5.535.535,0,1,0,.952.486,18.535,18.535,0,0,0,2.027-7.986Z" transform="translate(-60.633 -71.436)" fill="#fff"/>
    <path id="Path_3362" data-name="Path 3362" d="M2585.323,3404.8a.535.535,0,0,0-.377.656,2.662,2.662,0,0,1,.092.7v.007a23.733,23.733,0,0,1-1.423,8.16.535.535,0,1,0,1,.366,24.8,24.8,0,0,0,1.488-8.526v-.007a3.736,3.736,0,0,0-.129-.975A.534.534,0,0,0,2585.323,3404.8Z" transform="translate(-93.968 -73.143)" fill="#fff"/>
    <path id="Path_3363" data-name="Path 3363" d="M2541.633,3394.5a.525.525,0,0,0,.156.023.535.535,0,0,0,.511-.379,18.425,18.425,0,0,0,.626-3.591.541.541,0,0,0,0-.06v-.006a2.677,2.677,0,0,1,4.463-2,.535.535,0,0,0,.714-.8,3.746,3.746,0,0,0-6.246,2.768,17.05,17.05,0,0,1-.583,3.369A.535.535,0,0,0,2541.633,3394.5Z" transform="translate(-57.215 -57.477)" fill="#fff"/>
    <path id="Path_3364" data-name="Path 3364" d="M2532.349,3449.851a.535.535,0,0,0-.7.282c-.2.474-.454,1-.793,1.671a.535.535,0,1,0,.953.486c.351-.688.613-1.24.825-1.737A.534.534,0,0,0,2532.349,3449.851Z" transform="translate(-48.134 -112.237)" fill="#fff"/>
  </g>
</svg>
