<svg xmlns="http://www.w3.org/2000/svg" width="44" height="44" viewBox="0 0 44 44">
  <g id="Group_3512" data-name="Group 3512" transform="translate(-12261 -7411)">
    <circle id="Ellipse_48" data-name="Ellipse 48" cx="22" cy="22" r="22" transform="translate(12261 7411)" fill="#05ab9a"/>
    <path id="Path_3606" data-name="Path 3606" d="M193.307,220.195q-.233,0-.468-.019a5.6,5.6,0,1,1,.468.019Zm-.018-10.656a5.057,5.057,0,1,0,.42.017Q193.5,209.539,193.289,209.539Z" transform="translate(12081.289 7226.101)" fill="#fff"/>
    <path id="Path_3607" data-name="Path 3607" d="M197.938,223.469c-.116,0-.232,0-.35-.014a4.245,4.245,0,1,1,.35.014Zm-.009-7.93a3.685,3.685,0,1,0,.307.012Q198.082,215.539,197.929,215.54Z" transform="translate(12076.651 7221.463)" fill="#fff"/>
    <path id="Path_3608" data-name="Path 3608" d="M201.233,224.9h-.023a.282.282,0,0,1-.258-.3,2.6,2.6,0,0,1,2.809-2.383.282.282,0,0,1,.258.3.285.285,0,0,1-.3.258,2.041,2.041,0,0,0-2.2,1.868A.282.282,0,0,1,201.233,224.9Z" transform="translate(12071.038 7215.875)" fill="#fff"/>
    <path id="Path_3609" data-name="Path 3609" d="M206.856,150.174a.282.282,0,0,1-.231-.121,5.045,5.045,0,0,0-7.773-.637.282.282,0,0,1-.483-.219l.11-1.354a4.4,4.4,0,1,1,8.771.718l-.112,1.354a.282.282,0,0,1-.208.249A.287.287,0,0,1,206.856,150.174Zm-4.384-2.858q.231,0,.463.019a5.588,5.588,0,0,1,3.7,1.825l.054-.645a3.837,3.837,0,0,0-7.648-.626l-.052.644A5.584,5.584,0,0,1,202.472,147.316Z" transform="translate(12073.035 7276.47)" fill="#fff"/>
    <path id="Path_3610" data-name="Path 3610" d="M215.212,180.678a.281.281,0,0,1-.206-.474c.107-.115,2.688-2.8,7.9-1.555a.282.282,0,1,1-.131.548c-4.9-1.173-7.335,1.365-7.359,1.391A.281.281,0,0,1,215.212,180.678Z" transform="translate(12060.234 7249.793)" fill="#fff"/>
    <path id="Path_3611" data-name="Path 3611" d="M236.7,206.812a.282.282,0,0,1-.06-.557l2.751-.6a.282.282,0,0,1,.12.551l-2.751.6A.293.293,0,0,1,236.7,206.812Z" transform="translate(12043.63 7228.672)" fill="#fff"/>
    <path id="Path_3612" data-name="Path 3612" d="M242.413,188.425a2.161,2.161,0,1,1,2.161-2.161A2.163,2.163,0,0,1,242.413,188.425Zm0-3.758a1.6,1.6,0,1,0,1.6,1.6A1.6,1.6,0,0,0,242.413,184.667Z" transform="translate(12040.664 7245.323)" fill="#fff"/>
    <path id="Path_3613" data-name="Path 3613" d="M246.488,191.3a.964.964,0,0,1-.963-.963.282.282,0,0,1,.563,0,.4.4,0,1,0,.4-.4.282.282,0,0,1,0-.564.963.963,0,0,1,0,1.926Z" transform="translate(12036.589 7241.248)" fill="#fff"/>
    <path id="Path_3614" data-name="Path 3614" d="M248.807,181.295a.282.282,0,0,1-.282-.282v-.991a.282.282,0,0,1,.563,0v.991A.282.282,0,0,1,248.807,181.295Z" transform="translate(12034.271 7248.695)" fill="#fff"/>
    <path id="Path_3615" data-name="Path 3615" d="M248.807,202.348a.282.282,0,0,1-.282-.282v-1.136a.282.282,0,1,1,.563,0v1.136A.282.282,0,0,1,248.807,202.348Z" transform="translate(12034.271 7232.536)" fill="#fff"/>
    <path id="Path_3616" data-name="Path 3616" d="M234.8,234.831h-.019a.282.282,0,0,1-.263-.3v-.025l.084,0-.083-.009a.282.282,0,0,1,.562.035v.032A.282.282,0,0,1,234.8,234.831Z" transform="translate(12045.094 7206.572)" fill="#fff"/>
    <path id="Path_3617" data-name="Path 3617" d="M198.765,176.865h-.02a.282.282,0,0,1-.261-.3l.006-.085a5.042,5.042,0,0,0-10.038-.918.282.282,0,0,1-.561-.057l.9-11.082a5.607,5.607,0,0,1,11.1-.588.281.281,0,0,1-.062.235.276.276,0,0,1-.221.1,7.493,7.493,0,0,0-4.624,1.316,5.642,5.642,0,0,1,4.494,5.846c-.244,2.953-.388,4.731-.421,5.185,0,.03,0,.059-.006.089A.282.282,0,0,1,198.765,176.865Zm-5.322-6.3c.155,0,.311.006.468.019a5.621,5.621,0,0,1,4.766,3.553c.073-.893.157-1.912.234-2.843a5.069,5.069,0,0,0-4.62-5.335.282.282,0,0,1-.183-.473,7.305,7.305,0,0,1,5.149-1.879,5.044,5.044,0,0,0-9.907.865l-.715,8.831A5.583,5.583,0,0,1,193.443,170.563Z" transform="translate(12081.133 7264.514)" fill="#fff"/>
    <path id="Path_3618" data-name="Path 3618" d="M268.052,220.195a5.625,5.625,0,1,1,.467-.019Q268.285,220.2,268.052,220.195Zm.013-10.656c-.138,0-.276.005-.416.017a5.044,5.044,0,1,0,.416-.017Z" transform="translate(12023.507 7226.101)" fill="#fff"/>
    <path id="Path_3619" data-name="Path 3619" d="M272.7,223.471q-.177,0-.354-.014a4.241,4.241,0,1,1,.354.014Zm-.01-7.93a3.682,3.682,0,1,0,.3.012C272.9,215.545,272.795,215.541,272.694,215.541Z" transform="translate(12018.871 7221.461)" fill="#fff"/>
    <path id="Path_3620" data-name="Path 3620" d="M276,224.9h-.023a.282.282,0,0,1-.258-.3,2.6,2.6,0,0,1,2.809-2.383.282.282,0,0,1-.046.561,2.041,2.041,0,0,0-2.2,1.868A.282.282,0,0,1,276,224.9Z" transform="translate(12013.258 7215.876)" fill="#fff"/>
    <path id="Path_3621" data-name="Path 3621" d="M262.4,150.173a.289.289,0,0,1-.073-.01.282.282,0,0,1-.208-.249l-.112-1.353a4.4,4.4,0,1,1,8.771-.719l.11,1.354a.282.282,0,0,1-.483.219,5.045,5.045,0,0,0-7.773.637A.282.282,0,0,1,262.4,150.173Zm4-5.808q-.159,0-.32.013a3.837,3.837,0,0,0-3.511,4.137l.053.644a5.61,5.61,0,0,1,7.647-.626l-.052-.644a3.837,3.837,0,0,0-3.818-3.523Z" transform="translate(12023.858 7276.471)" fill="#fff"/>
    <path id="Path_3622" data-name="Path 3622" d="M256.437,180.678a.281.281,0,0,1-.206-.089c-.024-.025-2.479-2.56-7.359-1.391a.282.282,0,0,1-.131-.548c5.216-1.25,7.8,1.44,7.9,1.555a.282.282,0,0,1-.206.474Z" transform="translate(12034.271 7249.793)" fill="#fff"/>
    <path id="Path_3623" data-name="Path 3623" d="M251.558,206.812a.288.288,0,0,1-.06-.006l-2.751-.6a.282.282,0,0,1,.12-.551l2.751.6a.282.282,0,0,1-.06.557Z" transform="translate(12034.271 7228.672)" fill="#fff"/>
    <path id="Path_3624" data-name="Path 3624" d="M262.809,234.848a.281.281,0,0,1-.28-.256c0-.005,0-.023,0-.028a.282.282,0,0,1,.562-.036c0,.012,0,.027,0,.029a.282.282,0,0,1-.264.291Z" transform="translate(12023.449 7206.555)" fill="#fff"/>
    <path id="Path_3625" data-name="Path 3625" d="M259.932,176.865a.281.281,0,0,1-.28-.26c0-.029,0-.058-.006-.087-.033-.452-.177-2.231-.421-5.181a5.644,5.644,0,0,1,4.494-5.852,7.494,7.494,0,0,0-4.624-1.316.273.273,0,0,1-.221-.1.282.282,0,0,1-.062-.235,5.607,5.607,0,0,1,11.1.587l.9,11.082a.282.282,0,0,1-.56.057,5.042,5.042,0,0,0-10.038.919l.006.084a.282.282,0,0,1-.261.3ZM259.44,163.6a7.3,7.3,0,0,1,5.149,1.879.281.281,0,0,1-.183.473,5.07,5.07,0,0,0-4.62,5.34c.077.929.16,1.945.233,2.838a5.607,5.607,0,0,1,10.043-.834l-.715-8.832a5.044,5.044,0,0,0-9.907-.865Z" transform="translate(12026.325 7264.514)" fill="#fff"/>
  </g>
</svg>
