<svg xmlns="http://www.w3.org/2000/svg" width="44" height="44" viewBox="0 0 44 44">
  <g id="seek-time" opacity="1">
    <g id="Group_3448" data-name="Group 3448">
      <circle id="Ellipse_48" data-name="Ellipse 48" cx="22" cy="22" r="22" fill="#476cad"/>
    </g>
    <path id="Path_3643" data-name="Path 3643" d="M661.279,352.679l1.2-1.7a.683.683,0,0,0-.163-.951l-1.809-1.281a.683.683,0,0,0-.951.162l-1.23,1.737a10.86,10.86,0,0,0-2.9-.891v-.707a.824.824,0,0,1,.822-.822h.454a.825.825,0,0,0,.823-.822v-2.5a.825.825,0,0,0-.823-.822h-6.011a.824.824,0,0,0-.822.822v2.5a.825.825,0,0,0,.822.822h.454a.824.824,0,0,1,.822.822v.707a10.865,10.865,0,0,0-3.1.985l-1.218-1.72a.683.683,0,0,0-.951-.162l-1.81,1.281a.682.682,0,0,0-.163.951l1.229,1.736a10.963,10.963,0,1,0,15.328-.15Zm-7.586,16.236a8.332,8.332,0,1,1,8.332-8.331A8.341,8.341,0,0,1,653.692,368.916Z" transform="translate(-631.488 -336.681)" fill="#fff"/>
    <g id="Group_3498" data-name="Group 3498" transform="translate(16.551 19.184)">
      <path id="Path_3606" data-name="Path 3606" d="M189.89,213.373q-.091,0-.183-.007a2.194,2.194,0,1,1,.183.007Zm-.007-4.176a1.982,1.982,0,1,0,.165.007Q189.965,209.2,189.883,209.2Z" transform="translate(-187.688 -203.174)" fill="#fff"/>
      <path id="Path_3607" data-name="Path 3607" d="M195.354,218.3c-.046,0-.091,0-.137-.006a1.664,1.664,0,1,1,.137.006Zm0-3.108a1.444,1.444,0,1,0,.12,0Q195.41,215.2,195.35,215.2Z" transform="translate(-193.154 -208.64)" fill="#fff"/>
      <path id="Path_3608" data-name="Path 3608" d="M201.061,223.263h-.009a.11.11,0,0,1-.1-.119,1.021,1.021,0,0,1,1.1-.934.11.11,0,0,1,.1.119.112.112,0,0,1-.119.1.8.8,0,0,0-.863.732A.11.11,0,0,1,201.061,223.263Z" transform="translate(-199.77 -215.226)" fill="#fff"/>
      <path id="Path_3609" data-name="Path 3609" d="M201.695,146.3a.111.111,0,0,1-.091-.047,1.977,1.977,0,0,0-3.046-.25.11.11,0,0,1-.189-.086l.043-.531a1.724,1.724,0,1,1,3.437.282l-.044.531a.11.11,0,0,1-.081.1A.113.113,0,0,1,201.695,146.3Zm-1.718-1.12q.09,0,.181.007a2.19,2.19,0,0,1,1.45.715l.021-.253a1.5,1.5,0,0,0-3-.245l-.02.253A2.188,2.188,0,0,1,199.976,145.179Z" transform="translate(-197.417 -143.802)" fill="#fff"/>
      <path id="Path_3610" data-name="Path 3610" d="M215.041,179.244a.11.11,0,0,1-.081-.186,3.18,3.18,0,0,1,3.1-.609.11.11,0,1,1-.051.215,3.011,3.011,0,0,0-2.884.545A.11.11,0,0,1,215.041,179.244Z" transform="translate(-212.505 -175.246)" fill="#fff"/>
      <path id="Path_3611" data-name="Path 3611" d="M236.525,206.1a.11.11,0,0,1-.023-.218l1.078-.235a.11.11,0,0,1,.047.216l-1.078.235Z" transform="translate(-232.077 -200.142)" fill="#fff"/>
      <path id="Path_3612" data-name="Path 3612" d="M241.1,185.8a.847.847,0,1,1,.847-.847A.848.848,0,0,1,241.1,185.8Zm0-1.473a.626.626,0,1,0,.626.626A.627.627,0,0,0,241.1,184.325Z" transform="translate(-235.573 -180.516)" fill="#fff"/>
      <path id="Path_3613" data-name="Path 3613" d="M245.9,190.131a.378.378,0,0,1-.377-.378.11.11,0,0,1,.221,0,.157.157,0,1,0,.157-.157.11.11,0,0,1,0-.221.378.378,0,0,1,0,.755Z" transform="translate(-240.376 -185.319)" fill="#fff"/>
      <path id="Path_3614" data-name="Path 3614" d="M248.635,180.349a.11.11,0,0,1-.11-.11v-.388a.11.11,0,1,1,.221,0v.388A.11.11,0,0,1,248.635,180.349Z" transform="translate(-243.109 -176.541)" fill="#fff"/>
      <path id="Path_3615" data-name="Path 3615" d="M248.635,201.315a.11.11,0,0,1-.11-.11v-.445a.11.11,0,1,1,.221,0v.445A.11.11,0,0,1,248.635,201.315Z" transform="translate(-243.109 -195.588)" fill="#fff"/>
      <path id="Path_3616" data-name="Path 3616" d="M234.631,234.474h-.007a.11.11,0,0,1-.1-.116v-.01l.033,0-.033,0a.11.11,0,0,1,.22.014v.012A.11.11,0,0,1,234.631,234.474Z" transform="translate(-230.351 -226.193)" fill="#fff"/>
      <path id="Path_3617" data-name="Path 3617" d="M192.152,166.168h-.008a.11.11,0,0,1-.1-.117l0-.033a1.976,1.976,0,0,0-3.934-.36.11.11,0,0,1-.22-.022l.352-4.343a2.2,2.2,0,0,1,4.35-.23.11.11,0,0,1-.024.092.108.108,0,0,1-.087.039,2.937,2.937,0,0,0-1.812.516A2.211,2.211,0,0,1,192.43,164c-.1,1.157-.152,1.854-.165,2.032,0,.012,0,.023,0,.035A.11.11,0,0,1,192.152,166.168Zm-2.086-2.47c.061,0,.122,0,.184.007a2.2,2.2,0,0,1,1.868,1.393c.029-.35.061-.749.092-1.114a1.987,1.987,0,0,0-1.811-2.091.11.11,0,0,1-.072-.185,2.863,2.863,0,0,1,2.018-.736,1.977,1.977,0,0,0-3.883.339l-.28,3.461A2.188,2.188,0,0,1,190.066,163.7Z" transform="translate(-187.872 -157.895)" fill="#fff"/>
      <path id="Path_3618" data-name="Path 3618" d="M264.646,213.372a2.2,2.2,0,1,1,.183-.008Q264.738,213.373,264.646,213.372Zm.005-4.176c-.054,0-.108,0-.163.007a1.977,1.977,0,1,0,.163-.007Z" transform="translate(-255.796 -203.173)" fill="#fff"/>
      <path id="Path_3619" data-name="Path 3619" d="M270.117,218.307q-.069,0-.139-.006a1.662,1.662,0,1,1,.139.006Zm0-3.108a1.443,1.443,0,1,0,.119,0C270.192,215.2,270.153,215.2,270.113,215.2Z" transform="translate(-261.26 -208.642)" fill="#fff"/>
      <path id="Path_3620" data-name="Path 3620" d="M275.824,223.262h-.009a.11.11,0,0,1-.1-.119,1.021,1.021,0,0,1,1.1-.934.11.11,0,0,1-.018.22.8.8,0,0,0-.863.732A.11.11,0,0,1,275.824,223.262Z" transform="translate(-267.877 -215.225)" fill="#fff"/>
      <path id="Path_3621" data-name="Path 3621" d="M262.157,146.3a.113.113,0,0,1-.029,0,.111.111,0,0,1-.081-.1l-.044-.53a1.724,1.724,0,1,1,3.437-.282l.043.531a.11.11,0,0,1-.189.086,1.977,1.977,0,0,0-3.046.25A.11.11,0,0,1,262.157,146.3Zm1.567-2.276q-.062,0-.125.005a1.5,1.5,0,0,0-1.376,1.621l.021.252a2.2,2.2,0,0,1,3-.246l-.02-.253a1.5,1.5,0,0,0-1.5-1.381Z" transform="translate(-255.382 -143.801)" fill="#fff"/>
      <path id="Path_3622" data-name="Path 3622" d="M251.626,179.243a.11.11,0,0,1-.081-.035,3.025,3.025,0,0,0-2.884-.545.11.11,0,0,1-.051-.215,3.18,3.18,0,0,1,3.1.609.11.11,0,0,1-.081.186Z" transform="translate(-243.109 -175.246)" fill="#fff"/>
      <path id="Path_3623" data-name="Path 3623" d="M249.714,206.1l-.024,0-1.078-.235a.11.11,0,0,1,.047-.216l1.078.235a.11.11,0,0,1-.023.218Z" transform="translate(-243.109 -200.142)" fill="#fff"/>
      <path id="Path_3624" data-name="Path 3624" d="M262.638,234.494a.11.11,0,0,1-.11-.1v-.011a.11.11,0,0,1,.22-.014v.011a.11.11,0,0,1-.1.114Z" transform="translate(-255.865 -226.213)" fill="#fff"/>
      <path id="Path_3625" data-name="Path 3625" d="M259.247,166.167a.11.11,0,0,1-.11-.1c0-.011,0-.023,0-.034-.013-.177-.07-.874-.165-2.03a2.212,2.212,0,0,1,1.761-2.293,2.937,2.937,0,0,0-1.812-.516.107.107,0,0,1-.087-.039.111.111,0,0,1-.024-.092,2.2,2.2,0,0,1,4.35.23l.352,4.343a.11.11,0,0,1-.22.022,1.976,1.976,0,0,0-3.934.36l0,.033a.11.11,0,0,1-.1.117Zm-.193-5.2a2.862,2.862,0,0,1,2.018.736.11.11,0,0,1-.072.185,1.987,1.987,0,0,0-1.811,2.093c.03.364.063.762.091,1.112a2.2,2.2,0,0,1,3.936-.327l-.28-3.461a1.977,1.977,0,0,0-3.883-.339Z" transform="translate(-252.474 -157.895)" fill="#fff"/>
    </g>
  </g>
</svg>
