<svg xmlns="http://www.w3.org/2000/svg" width="58" height="39" viewBox="0 0 58 39">
  <g id="settings-icon" transform="translate(619 -2694)">
    <rect id="Rectangle_21" data-name="Rectangle 21" width="58" height="39" transform="translate(-619 2694)" opacity="0"/>
    <path id="_Color" data-name=" ↳Color" d="M12.057,20H7.943a.518.518,0,0,1-.515-.425l-.386-2.65a7.559,7.559,0,0,1-1.736-.975l-2.558,1a.576.576,0,0,1-.178.028.51.51,0,0,1-.452-.253L.061,13.263a.507.507,0,0,1,.129-.638l2.173-1.65A6.162,6.162,0,0,1,2.286,10a6.052,6.052,0,0,1,.09-.975L.2,7.375a.475.475,0,0,1-.128-.638L2.131,3.275a.516.516,0,0,1,.63-.225l2.559,1a7.809,7.809,0,0,1,1.736-.975L7.442.425A.5.5,0,0,1,7.943,0h4.114a.51.51,0,0,1,.515.425l.386,2.65a7.6,7.6,0,0,1,1.736.975l2.558-1a.576.576,0,0,1,.178-.028.51.51,0,0,1,.452.253l2.058,3.463a.506.506,0,0,1-.129.638l-2.173,1.65a6.059,6.059,0,0,1,.077.975,7.933,7.933,0,0,1-.065.975l2.147,1.65a.475.475,0,0,1,.128.638l-2.057,3.462a.516.516,0,0,1-.63.225l-2.559-1a7.735,7.735,0,0,1-1.736.975l-.386,2.65A.483.483,0,0,1,12.057,20ZM10,6.25A3.809,3.809,0,0,0,6.143,10a3.859,3.859,0,0,0,7.714,0A3.809,3.809,0,0,0,10,6.25Z" transform="translate(-600 2704)" fill="#fff"/>
  </g>
</svg>
