<svg id="energy-btn" width="247" height="31" viewBox="0 0 247  31"><defs><clipPath id="clip-path"><rect id="Rectangle_874" data-name="Rectangle 874" width="11.5" height="17.842" fill="#fff"></rect></clipPath></defs><rect id="Rectangle_876" data-name="Rectangle 876" width="247" height="31" fill="#536aab" opacity="0.4"></rect><rect id="Rectangle_873" data-name="Rectangle 873" width="29" height="31" transform="translate(218)" fill="#647ec8" opacity="0.4"></rect><text id="ENERGY_ANALYSIS" data-name="ENERGY ANALYSIS" transform="translate(80 21)" fill="#fff" font-size="16" font-family="'Din', sans-serif"><tspan x="-62.904" y="0">SUSTAINABILITY ANALYSIS</tspan></text><g id="Group_3825" data-name="Group 3825" transform="translate(227 5.871)"><g id="Group_3824" data-name="Group 3824" clip-path="url(#clip-path)"><path id="Path_3685" data-name="Path 3685" d="M10.281,2.133H8.363V1.221A1.221,1.221,0,0,0,7.144,0H4.356A1.222,1.222,0,0,0,3.137,1.221v.911H1.219A1.223,1.223,0,0,0,0,3.354V16.62a1.222,1.222,0,0,0,1.219,1.221h9.062A1.221,1.221,0,0,0,11.5,16.62V3.354a1.222,1.222,0,0,0-1.219-1.221M1.046,5.274h9.408V14.7H1.046ZM4.181,1.221a.176.176,0,0,1,.175-.175H7.144a.175.175,0,0,1,.175.175v.911H4.181ZM1.219,3.179h9.062a.174.174,0,0,1,.173.175v.873H1.046V3.354a.175.175,0,0,1,.173-.175m9.062,13.615H1.219a.175.175,0,0,1-.173-.174v-.873h9.408v.873a.174.174,0,0,1-.173.174" transform="translate(0 0.001)" fill="#fff" fill-rule="evenodd"></path><path id="Path_3686" data-name="Path 3686" d="M35.724,65.247l-1.334-.96V62.43a.522.522,0,0,0-.924-.335l-2.631,3.172a.526.526,0,0,0,.123.778l1.412.893v1.774a.523.523,0,0,0,.925.335l2.526-3.041a.524.524,0,0,0-.1-.76m-2.309,2.019V66.65a.524.524,0,0,0-.243-.442l-1.152-.73,1.326-1.6v.675a.519.519,0,0,0,.218.425l1.094.79Z" transform="translate(-27.578 -55.584)" fill="#fff" fill-rule="evenodd"></path></g></g></svg>