<svg xmlns="http://www.w3.org/2000/svg" width="44" height="44" viewBox="0 0 44 44">
  <g id="Group_3516" data-name="Group 3516" transform="translate(-11846 -7634)">
    <circle id="Ellipse_48" data-name="Ellipse 48" cx="22" cy="22" r="22" transform="translate(11846 7634)" fill="#e5763d"/>
    <path id="Path_3564" data-name="Path 3564" d="M178.96,210.633a9.574,9.574,0,1,1,9.574-9.574q0,.278-.016.553a.515.515,0,0,1-1.028-.058q.015-.245.014-.494a8.545,8.545,0,1,0-8.544,8.545q.326,0,.647-.025a.515.515,0,1,1,.078,1.026C179.448,210.624,179.2,210.633,178.96,210.633Z" transform="translate(11685.562 7452.463)" fill="#fff"/>
    <path id="Path_3565" data-name="Path 3565" d="M178.3,211.921A11.522,11.522,0,1,1,189.821,200.4c0,.183,0,.367-.013.548a.515.515,0,1,1-1.028-.049c.008-.166.012-.332.012-.5A10.492,10.492,0,1,0,178.3,210.891a10.391,10.391,0,0,0,1.105-.058.515.515,0,0,1,.108,1.024A11.641,11.641,0,0,1,178.3,211.921Z" transform="translate(11686.222 7453.123)" fill="#fff"/>
    <path id="Path_3566" data-name="Path 3566" d="M182.031,196.371a.515.515,0,0,1-.515-.515v-.9a.515.515,0,1,1,1.03,0v.9A.515.515,0,0,1,182.031,196.371Z" transform="translate(11682.49 7451.715)" fill="#fff"/>
    <path id="Path_3567" data-name="Path 3567" d="M186.954,199.325a.514.514,0,0,1-.364-.878l1.17-1.171a.515.515,0,0,1,.728.728l-1.17,1.171A.515.515,0,0,1,186.954,199.325Z" transform="translate(11681.244 7451.035)" fill="#fff"/>
    <path id="Path_3568" data-name="Path 3568" d="M190.9,204.645H190a.515.515,0,1,1,0-1.029h.9a.515.515,0,0,1,0,1.029Z" transform="translate(11680.473 7449.391)" fill="#fff"/>
    <path id="Path_3569" data-name="Path 3569" d="M182.031,213.517a.515.515,0,0,1-.515-.515v-.9a.515.515,0,0,1,1.03,0v.9A.515.515,0,0,1,182.031,213.517Z" transform="translate(11682.49 7447.374)" fill="#fff"/>
    <path id="Path_3570" data-name="Path 3570" d="M175.541,210.739a.515.515,0,0,1-.364-.879l1.17-1.171a.515.515,0,1,1,.728.728l-1.17,1.171A.516.516,0,0,1,175.541,210.739Z" transform="translate(11684.134 7448.145)" fill="#fff"/>
    <path id="Path_3571" data-name="Path 3571" d="M173.757,204.645h-.9a.515.515,0,0,1,0-1.029h.9a.515.515,0,0,1,0,1.029Z" transform="translate(11684.814 7449.391)" fill="#fff"/>
    <path id="Path_3572" data-name="Path 3572" d="M176.712,199.325a.515.515,0,0,1-.364-.15L175.177,198a.515.515,0,0,1,.728-.728l1.17,1.171a.514.514,0,0,1-.364.878Z" transform="translate(11684.134 7451.035)" fill="#fff"/>
    <path id="Path_3573" data-name="Path 3573" d="M183.4,203.964h-1.373a.515.515,0,0,1-.515-.515v-2.01a.515.515,0,0,1,1.03,0v1.5h.858a.515.515,0,0,1,0,1.029Z" transform="translate(11682.49 7450.073)" fill="#fff"/>
    <path id="Path_3574" data-name="Path 3574" d="M192.237,217.271a2.043,2.043,0,0,1-2.041-2.041.515.515,0,0,1,1.03,0,1.012,1.012,0,1,0,1.011-1.012,2.041,2.041,0,1,1,2.041-2.04.515.515,0,1,1-1.029,0,1.012,1.012,0,1,0-1.012,1.011,2.041,2.041,0,1,1,0,4.082Z" transform="translate(11680.293 7447.74)" fill="#fff"/>
    <path id="Path_3575" data-name="Path 3575" d="M197.552,218.971h-6.7a6.139,6.139,0,1,1,0-12.278h6.7a.515.515,0,1,1,0,1.029h-6.7a5.11,5.11,0,0,0,0,10.219h6.7a.515.515,0,1,1,0,1.029Z" transform="translate(11681.682 7448.612)" fill="#fff"/>
    <path id="Path_3576" data-name="Path 3576" d="M192.755,210.946a.515.515,0,0,1-.515-.515v-.648a.515.515,0,0,1,1.03,0v.648A.515.515,0,0,1,192.755,210.946Z" transform="translate(11679.775 7447.96)" fill="#fff"/>
    <path id="Path_3577" data-name="Path 3577" d="M192.755,219.99a.515.515,0,0,1-.515-.515v-.649a.515.515,0,1,1,1.03,0v.649A.515.515,0,0,1,192.755,219.99Z" transform="translate(11679.775 7445.67)" fill="#fff"/>
    <path id="Path_3578" data-name="Path 3578" d="M204.059,215.253h-6.417a.515.515,0,1,1,0-1.029h6.417a.515.515,0,1,1,0,1.029Z" transform="translate(11678.538 7446.706)" fill="#fff"/>
    <path id="Path_3579" data-name="Path 3579" d="M202.157,211.549H196.77a.515.515,0,1,1,0-1.029h5.387a.515.515,0,0,1,0,1.029Z" transform="translate(11678.759 7447.643)" fill="#fff"/>
    <path id="Path_3580" data-name="Path 3580" d="M202.157,218.958H196.77a.515.515,0,1,1,0-1.029h5.387a.515.515,0,0,1,0,1.029Z" transform="translate(11678.759 7445.768)" fill="#fff"/>
  </g>
</svg>
