<svg xmlns="http://www.w3.org/2000/svg" width="53.725" height="70" viewBox="0 0 53.725 70">
  <g id="icon-waste" transform="translate(-268.764 -341.299)" opacity="0.15">
    <path id="Path_83" data-name="Path 83" d="M310.388,381.173a1.188,1.188,0,0,1-1.177-1.23l1.189-26.056H277.666l1.188,26.056a1.176,1.176,0,1,1-2.35.107l-1.245-27.287a1.177,1.177,0,0,1,1.176-1.229h35.2a1.175,1.175,0,0,1,1.174,1.229l-1.244,27.287A1.176,1.176,0,0,1,310.388,381.173Z" transform="translate(1.593 2.51)" fill="#8aa3cf"/>
    <path id="Path_84" data-name="Path 84" d="M304.362,400.775H283.014a5.873,5.873,0,0,1-5.878-5.624l-.469-9.717a1.177,1.177,0,1,1,2.351-.113l.469,9.722a3.524,3.524,0,0,0,3.527,3.379h21.348a3.523,3.523,0,0,0,3.527-3.374l.471-9.727a1.176,1.176,0,1,1,2.35.113l-.469,9.722A5.871,5.871,0,0,1,304.362,400.775Z" transform="translate(1.938 10.524)" fill="#8aa3cf"/>
    <path id="Path_85" data-name="Path 85" d="M313.163,355.158h-36.7a4.4,4.4,0,0,1,0-8.806h36.7a4.4,4.4,0,0,1,0,8.806Zm-36.7-6.453a2.05,2.05,0,0,0,0,4.1h36.7a2.05,2.05,0,0,0,0-4.1Z" transform="translate(0.811 1.24)" fill="#8aa3cf"/>
    <path id="Path_86" data-name="Path 86" d="M299.762,349.944H284.4a1.175,1.175,0,0,1-1.176-1.176v-3.346a4.127,4.127,0,0,1,4.122-4.123h9.471a4.127,4.127,0,0,1,4.123,4.123v3.346A1.176,1.176,0,0,1,299.762,349.944Zm-14.188-2.352h13.011v-2.169a1.772,1.772,0,0,0-1.771-1.77h-9.471a1.772,1.772,0,0,0-1.77,1.77Z" transform="translate(3.547)" fill="#8aa3cf"/>
    <path id="Path_87" data-name="Path 87" d="M306.529,358.592H276.642a1.177,1.177,0,0,1,0-2.354h29.887a1.177,1.177,0,1,1,0,2.354Z" transform="translate(1.644 3.665)" fill="#8aa3cf"/>
    <path id="Path_88" data-name="Path 88" d="M297.225,372.057a1.173,1.173,0,0,1-.984-.532l-4.579-6.976-4.579,6.976a1.176,1.176,0,1,1-1.968-1.29l5.563-8.477a1.221,1.221,0,0,1,1.968,0l5.562,8.477a1.176,1.176,0,0,1-.983,1.822Z" transform="translate(3.964 4.897)" fill="#8aa3cf"/>
    <path id="Path_89" data-name="Path 89" d="M305.572,384.82H293.413a1.177,1.177,0,1,1,0-2.354h9.98l-5.52-8.412a1.177,1.177,0,0,1,1.968-1.291L306.556,383a1.177,1.177,0,0,1-.984,1.822Z" transform="translate(5.758 7.588)" fill="#8aa3cf"/>
    <path id="Path_90" data-name="Path 90" d="M290.414,384.82H277.957a1.176,1.176,0,0,1-.984-1.822l6.716-10.236a1.177,1.177,0,0,1,1.968,1.291l-5.52,8.413h10.278a1.177,1.177,0,0,1,0,2.354Z" transform="translate(1.966 7.588)" fill="#8aa3cf"/>
    <path id="Path_91" data-name="Path 91" d="M284.481,377.037a1.177,1.177,0,0,1-1.147-.918l-.3-1.333-1.813.364a1.177,1.177,0,0,1-.462-2.308l2.94-.589a1.178,1.178,0,0,1,1.379.9l.552,2.453a1.175,1.175,0,0,1-1.148,1.435Z" transform="translate(2.71 7.588)" fill="#8aa3cf"/>
    <path id="Path_92" data-name="Path 92" d="M295.574,370.864a1.065,1.065,0,0,1-.166-.012l-2.742-.39a1.176,1.176,0,1,1,.33-2.329l1.737.247.422-1.417a1.176,1.176,0,1,1,2.255.67l-.71,2.39A1.176,1.176,0,0,1,295.574,370.864Z" transform="translate(5.615 6.089)" fill="#8aa3cf"/>
    <path id="Path_93" data-name="Path 93" d="M295.4,385.121a1.174,1.174,0,0,1-.821-.334l-1.99-1.937a1.176,1.176,0,0,1,0-1.686l1.99-1.936a1.177,1.177,0,1,1,1.641,1.686l-1.123,1.093,1.123,1.093a1.176,1.176,0,0,1-.821,2.02Z" transform="translate(5.758 9.223)" fill="#8aa3cf"/>
    <path id="Path_94" data-name="Path 94" d="M305.162,391.286H294.441a1.177,1.177,0,1,1,0-2.354h10.721a1.177,1.177,0,1,1,0,2.354Z" transform="translate(6.01 11.685)" fill="#8aa3cf"/>
    <path id="Path_95" data-name="Path 95" d="M298.453,391.286h-20.37a1.177,1.177,0,1,1,0-2.354h20.37a1.177,1.177,0,1,1,0,2.354Z" transform="translate(1.998 11.685)" fill="#8aa3cf"/>
    <path id="Path_96" data-name="Path 96" d="M321.312,397.974H269.94a1.177,1.177,0,0,1,0-2.354h51.373a1.177,1.177,0,0,1,0,2.354Z" transform="translate(0 13.325)" fill="#8aa3cf"/>
  </g>
</svg>
