<svg xmlns="http://www.w3.org/2000/svg" width="14.358" height="18.708" viewBox="0 0 14.358 18.708">
  <g id="Group_802" data-name="Group 802" transform="translate(3863 5761.208)">
    <g id="Group_667" data-name="Group 667" transform="translate(-4131.764 -6102.507)">
      <path id="Path_83" data-name="Path 83" d="M284.647,359.454a.317.317,0,0,1-.314-.329l.318-6.964H275.9l.318,6.964a.314.314,0,1,1-.628.029l-.333-7.293a.315.315,0,0,1,.314-.328h9.407a.314.314,0,0,1,.314.328l-.332,7.293A.314.314,0,0,1,284.647,359.454Z" transform="translate(-4.333 -6.828)" fill="#8aa3cf"/>
      <path id="Path_84" data-name="Path 84" d="M284.067,388.63h-5.706a1.57,1.57,0,0,1-1.571-1.5l-.125-2.6a.315.315,0,1,1,.628-.03l.125,2.6a.942.942,0,0,0,.943.9h5.706a.942.942,0,0,0,.943-.9l.126-2.6a.314.314,0,1,1,.628.03l-.125,2.6A1.569,1.569,0,0,1,284.067,388.63Z" transform="translate(-5.271 -28.623)" fill="#8aa3cf"/>
      <path id="Path_85" data-name="Path 85" d="M283.052,348.705h-9.807a1.177,1.177,0,0,1,0-2.353h9.807a1.177,1.177,0,0,1,0,2.353Zm-9.807-1.725a.548.548,0,0,0,0,1.1h9.807a.548.548,0,0,0,0-1.1Z" transform="translate(-2.206 -3.371)" fill="#8aa3cf"/>
      <path id="Path_86" data-name="Path 86" d="M287.642,343.609h-4.106a.314.314,0,0,1-.314-.314V342.4a1.1,1.1,0,0,1,1.1-1.1h2.531a1.1,1.1,0,0,1,1.1,1.1v.894A.314.314,0,0,1,287.642,343.609Zm-3.792-.629h3.477v-.58a.474.474,0,0,0-.473-.473h-2.531a.473.473,0,0,0-.473.473Z" transform="translate(-9.646)" fill="#8aa3cf"/>
      <path id="Path_87" data-name="Path 87" d="M283.768,356.867H275.78a.315.315,0,0,1,0-.629h7.988a.315.315,0,1,1,0,.629Z" transform="translate(-4.471 -9.967)" fill="#8aa3cf"/>
      <path id="Path_88" data-name="Path 88" d="M288.211,364.146a.313.313,0,0,1-.263-.142l-1.224-1.864L285.5,364a.314.314,0,1,1-.526-.345l1.487-2.265a.326.326,0,0,1,.526,0l1.486,2.265a.314.314,0,0,1-.263.487Z" transform="translate(-10.781 -13.318)" fill="#8aa3cf"/>
      <path id="Path_89" data-name="Path 89" d="M295.8,375.6h-3.25a.314.314,0,1,1,0-.629h2.667l-1.475-2.248a.315.315,0,0,1,.526-.345l1.795,2.735a.315.315,0,0,1-.263.487Z" transform="translate(-15.66 -20.638)" fill="#8aa3cf"/>
      <path id="Path_90" data-name="Path 90" d="M280.424,375.6h-3.329a.314.314,0,0,1-.263-.487l1.795-2.736a.315.315,0,0,1,.526.345l-1.475,2.249h2.747a.315.315,0,0,1,0,.629Z" transform="translate(-5.348 -20.637)" fill="#8aa3cf"/>
      <path id="Path_91" data-name="Path 91" d="M281.06,373.515a.315.315,0,0,1-.307-.245l-.08-.356-.485.1a.314.314,0,0,1-.123-.617l.786-.157a.315.315,0,0,1,.368.239l.147.656a.314.314,0,0,1-.307.383Z" transform="translate(-7.371 -20.637)" fill="#8aa3cf"/>
      <path id="Path_92" data-name="Path 92" d="M292.7,367.389a.284.284,0,0,1-.044,0l-.733-.1a.314.314,0,1,1,.088-.622l.464.066.113-.379a.314.314,0,1,1,.6.179l-.19.639A.314.314,0,0,1,292.7,367.389Z" transform="translate(-15.272 -16.561)" fill="#8aa3cf"/>
      <path id="Path_93" data-name="Path 93" d="M293.082,380.559a.314.314,0,0,1-.219-.089l-.532-.518a.314.314,0,0,1,0-.451l.532-.518a.314.314,0,1,1,.439.451l-.3.292.3.292a.314.314,0,0,1-.219.54Z" transform="translate(-15.66 -25.084)" fill="#8aa3cf"/>
      <path id="Path_94" data-name="Path 94" d="M296.444,389.561h-2.865a.315.315,0,1,1,0-.629h2.865a.315.315,0,1,1,0,.629Z" transform="translate(-16.346 -31.78)" fill="#8aa3cf"/>
      <path id="Path_95" data-name="Path 95" d="M282.665,389.561h-5.444a.315.315,0,1,1,0-.629h5.444a.315.315,0,1,1,0,.629Z" transform="translate(-5.433 -31.78)" fill="#8aa3cf"/>
      <path id="Path_96" data-name="Path 96" d="M282.808,396.249h-13.73a.315.315,0,0,1,0-.629h13.73a.315.315,0,1,1,0,.629Z" transform="translate(0 -36.242)" fill="#8aa3cf"/>
    </g>
  </g>
</svg>
