<svg xmlns="http://www.w3.org/2000/svg" width="30.014" height="30" viewBox="0 0 30.014 30">
  <g id="waste-icon" transform="translate(-70.382 -85.093)">
    <g id="Group_365" data-name="Group 365" transform="translate(70.382 85.093)">
      <path id="Path_58" data-name="Path 58" d="M99.028,88.271h-6.37a3.179,3.179,0,0,0-3.178-3.178H81.3a3.179,3.179,0,0,0-3.178,3.178H71.75a1.371,1.371,0,0,0-1.368,1.368v1.368a1.368,1.368,0,0,0,1.368,1.354h.041l2.156,21.5a1.353,1.353,0,0,0,1.354,1.23H95.476a1.353,1.353,0,0,0,1.354-1.23l2.156-21.5h.041a1.368,1.368,0,0,0,1.368-1.354V89.639A1.371,1.371,0,0,0,99.028,88.271Zm-3.1,25.509h0a.451.451,0,0,1-.456.4H75.3a.451.451,0,0,1-.456-.4L72.7,92.362H98.074ZM81.3,85.991h8.181a2.291,2.291,0,0,1,2.28,2.28H79.019A2.291,2.291,0,0,1,81.3,85.991Zm18.185,5.016a.457.457,0,0,1-.456.442H71.75a.457.457,0,0,1-.456-.442V89.639a.451.451,0,0,1,.456-.456H99.028a.451.451,0,0,1,.456.456Z" transform="translate(-70.382 -85.093)" fill="#84e9ff"/>
    </g>
    <g id="Group_366" data-name="Group 366" transform="translate(77.592 102.518)">
      <path id="Path_59" data-name="Path 59" d="M73.38,93.125h3.5a.46.46,0,0,0,.456-.456.451.451,0,0,0-.456-.456h-3.5A1.551,1.551,0,0,1,72,91.384a1.526,1.526,0,0,1,.083-1.6l.815-1.23.76.511.166-2.709L71.39,87.542l.746.511-.815,1.216a2.48,2.48,0,0,0,2.059,3.855Z" transform="translate(-70.904 -86.354)" fill="#84e9ff"/>
    </g>
    <g id="Group_367" data-name="Group 367" transform="translate(81.057 96.355)">
      <path id="Path_60" data-name="Path 60" d="M71.991,90.814l2.2-3.3a1.566,1.566,0,0,1,2.6,0l1.976,2.957-.76.5,2.446,1.216-.18-2.708-.746.5L77.546,87a2.487,2.487,0,0,0-4.118,0l-2.2,3.3a.447.447,0,0,0,.124.622A.471.471,0,0,0,71.991,90.814Z" transform="translate(-71.155 -85.908)" fill="#84e9ff"/>
    </g>
    <g id="Group_368" data-name="Group 368" transform="translate(85.251 103.682)">
      <path id="Path_61" data-name="Path 61" d="M76.916,91.134H73.807v-.912L71.458,91.59l2.349,1.354v-.9h3.109a2.48,2.48,0,0,0,2.059-3.855l-1.036-1.562A.491.491,0,0,0,77.3,86.5a.465.465,0,0,0-.124.636L78.215,88.7a1.526,1.526,0,0,1,.083,1.6A1.551,1.551,0,0,1,76.916,91.134Z" transform="translate(-71.458 -86.438)" fill="#84e9ff"/>
    </g>
  </g>
</svg>
