<svg xmlns="http://www.w3.org/2000/svg" width="49.43" height="70" viewBox="0 0 49.43 70">
  <g id="icon-water" opacity="0.15">
    <path id="Path_81" data-name="Path 81" d="M66.36,32.511l-.848-.962-.851.964c-.974,1.1-23.86,27.222-23.865,47.141a20.314,20.314,0,0,0,7.255,15.975,26.872,26.872,0,0,0,17.461,5.92,26.87,26.87,0,0,0,17.459-5.92,20.309,20.309,0,0,0,7.255-15.975C90.222,59.734,67.336,33.614,66.36,32.511ZM81.479,94.249a24.582,24.582,0,0,1-15.967,5.389,24.579,24.579,0,0,1-15.967-5.389,18.538,18.538,0,0,1-6.59-14.595c0-17.137,18.35-39.964,22.556-44.969,4.2,5,22.553,27.832,22.556,44.969A18.538,18.538,0,0,1,81.479,94.249Z" transform="translate(-40.797 -31.549)" fill="#8aa3cf"/>
    <path id="Path_82" data-name="Path 82" d="M45.957,66.534a1.064,1.064,0,0,0-1.153-.886,1,1,0,0,0-1,1.022A16.715,16.715,0,0,0,48.4,77.082a1.142,1.142,0,0,0,.821.334,1.154,1.154,0,0,0,.7-.23.882.882,0,0,0,.12-1.348A14.726,14.726,0,0,1,45.957,66.534Z" transform="translate(-38.996 -17.331)" fill="#8aa3cf"/>
  </g>
</svg>
