<svg xmlns="http://www.w3.org/2000/svg" width="29.986" height="30" viewBox="0 0 29.986 30">
  <g id="water-icon" transform="translate(-75.856 -94.949)">
    <g id="Group_359" data-name="Group 359" transform="translate(75.856 96.524)">
      <path id="Path_53" data-name="Path 53" d="M90.856,122.577a14.083,14.083,0,0,1-8.08-25.621l.608.939,1.437-2.831-3.163.166.621.967a14.992,14.992,0,0,0,8.577,27.293.46.46,0,0,0,.456-.456A.451.451,0,0,0,90.856,122.577Z" transform="translate(-75.856 -95.063)" fill="#84e9ff"/>
    </g>
    <g id="Group_360" data-name="Group 360" transform="translate(90.4 94.949)">
      <path id="Path_54" data-name="Path 54" d="M92.351,109.949a15.02,15.02,0,0,0-14.986-15,.463.463,0,0,0-.456.47.448.448,0,0,0,.456.442,14.083,14.083,0,0,1,8.066,25.622l-.608-.925-1.437,2.818,3.177-.166-.621-.967A14.941,14.941,0,0,0,92.351,109.949Z" transform="translate(-76.909 -94.949)" fill="#84e9ff"/>
    </g>
    <g id="Group_361" data-name="Group 361" transform="translate(81.118 100.032)">
      <path id="Path_55" data-name="Path 55" d="M94.8,106.947c0-4.71-6.851-11.215-7.141-11.506a.451.451,0,0,0-.622,0,40.4,40.4,0,0,0-3.854,4.351A23.143,23.143,0,0,0,81.2,97.61a.468.468,0,0,0-.635,0c-.166.166-4.323,4.13-4.323,7a4.638,4.638,0,0,0,4.019,4.6A7.447,7.447,0,0,0,94.8,106.947Zm-17.652-2.334c0-2.058,2.79-5.083,3.729-6.036,1.271,1.285,3.729,4.144,3.729,6.036a3.729,3.729,0,1,1-7.458,0Zm10.193,8.9a6.509,6.509,0,0,1-6.1-4.268,4.641,4.641,0,0,0,4.282-4.627,7.719,7.719,0,0,0-1.768-4.075,41.57,41.57,0,0,1,3.591-4.13c1.354,1.34,6.547,6.768,6.547,10.539A6.564,6.564,0,0,1,87.342,113.508Z" transform="translate(-76.237 -95.317)" fill="#84e9ff"/>
    </g>
    <g id="Group_362" data-name="Group 362" transform="translate(92.389 111.827)">
      <path id="Path_56" data-name="Path 56" d="M81.128,96.171a.46.46,0,0,0-.456.456A3.174,3.174,0,0,1,77.509,99.8a.449.449,0,1,0,0,.9,4.082,4.082,0,0,0,4.075-4.075A.451.451,0,0,0,81.128,96.171Z" transform="translate(-77.053 -96.171)" fill="#84e9ff"/>
    </g>
    <g id="Group_363" data-name="Group 363" transform="translate(85.221 108.789)">
      <path id="Path_57" data-name="Path 57" d="M79.614,96.407a.456.456,0,1,0-.912,0A1.713,1.713,0,0,1,76.99,98.12a.454.454,0,0,0-.456.469.448.448,0,0,0,.456.442A2.632,2.632,0,0,0,79.614,96.407Z" transform="translate(-76.534 -95.951)" fill="#84e9ff"/>
    </g>
  </g>
</svg>
