<svg xmlns="http://www.w3.org/2000/svg" width="13.733" height="19.448" viewBox="0 0 13.733 19.448">
  <g id="Group_801" data-name="Group 801" transform="translate(4053 5761.548)">
    <g id="Group_774" data-name="Group 774" transform="translate(-5183.267 -6249.5)">
      <g id="Group_666" data-name="Group 666" transform="translate(1130.267 487.952)">
        <path id="Path_81" data-name="Path 81" d="M47.9,31.816l-.236-.267-.236.268c-.271.306-6.629,7.563-6.63,13.1a5.644,5.644,0,0,0,2.016,4.438,7.976,7.976,0,0,0,9.7,0,5.643,5.643,0,0,0,2.016-4.438C54.529,39.38,48.17,32.123,47.9,31.816Zm4.2,17.153a7.321,7.321,0,0,1-8.872,0A5.15,5.15,0,0,1,41.4,44.914c0-4.761,5.1-11.1,6.267-12.494,1.168,1.39,6.266,7.733,6.267,12.494A5.15,5.15,0,0,1,52.1,48.969Z" transform="translate(-40.797 -31.549)" fill="#8aa3cf"/>
        <path id="Path_82" data-name="Path 82" d="M44.4,65.894a.3.3,0,0,0-.32-.246.279.279,0,0,0-.278.284,4.644,4.644,0,0,0,1.276,2.893.317.317,0,0,0,.228.093.321.321,0,0,0,.195-.064.245.245,0,0,0,.033-.374A4.091,4.091,0,0,1,44.4,65.894Z" transform="translate(-42.466 -52.224)" fill="#8aa3cf"/>
      </g>
    </g>
  </g>
</svg>
